<?xml version="1.0" standalone="no"?>
<!DOCTYPE svg PUBLIC "-//W3C//DTD SVG 20010904//EN"
 "http://www.w3.org/TR/2001/REC-SVG-20010904/DTD/svg10.dtd">
<svg version="1.0" xmlns="http://www.w3.org/2000/svg"
 width="700.000000pt" height="700.000000pt" viewBox="0 0 700.000000 700.000000"
 preserveAspectRatio="xMidYMid meet">
<metadata>
Created by potrace 1.14, written by Peter Selinger 2001-2017
</metadata>
<g transform="translate(0.000000,700.000000) scale(0.100000,-0.100000)"
fill="#000000" stroke="none">
<path d="M2700 5466 c0 -8 -13 -43 -30 -78 -64 -134 -23 -241 120 -317 70 -38
176 -106 184 -120 3 -5 -17 -1 -44 10 -68 26 -105 24 -210 -11 -50 -16 -97
-30 -105 -30 -32 0 -12 -20 41 -39 87 -33 159 -36 249 -11 42 12 85 23 96 25
23 5 39 -22 39 -65 0 -20 4 -30 12 -28 19 7 17 53 -4 100 -18 41 -18 44 -1
102 13 41 16 72 11 96 -10 51 -42 140 -50 140 -10 0 -28 -62 -34 -120 -5 -40
-1 -70 13 -112 11 -32 18 -58 17 -58 -4 0 -80 56 -126 92 -36 29 -62 91 -73
173 -12 95 -65 249 -90 259 -9 3 -15 0 -15 -8z"/>
<path d="M3060 4770 l-65 -5 -3 -179 c-1 -99 -6 -185 -10 -191 -4 -7 -43 -44
-87 -83 l-80 -71 -7 46 c-6 44 -38 96 -38 64 0 -8 -10 -28 -23 -45 -38 -52
-46 -80 -40 -152 5 -79 5 -67 -2 -164 -5 -56 -1 -93 12 -147 l19 -71 -42 30
c-23 16 -57 45 -75 64 -18 19 -36 34 -41 34 -10 0 27 -94 54 -138 27 -45 59
-63 110 -65 41 -2 44 -4 79 -65 69 -119 101 -257 102 -438 0 -105 7 -172 32
-284 3 -14 9 -51 14 -82 8 -62 -2 -81 -13 -23 -4 19 -18 58 -31 87 -23 50 -38
123 -49 230 -11 107 -55 202 -120 261 -31 27 -127 87 -141 87 -4 0 -5 -15 -1
-32 5 -31 11 -103 20 -263 8 -130 56 -225 169 -331 135 -127 179 -165 184
-160 3 3 6 27 8 54 3 61 26 102 78 135 44 29 72 28 117 -4 38 -26 130 -49 174
-43 43 5 96 32 96 49 0 5 -23 11 -51 12 -28 1 -72 9 -97 17 -26 8 -60 17 -76
21 -35 8 -32 11 19 19 86 14 167 37 215 61 56 28 156 141 203 228 45 86 75
267 43 267 -22 0 -112 -86 -131 -126 -12 -25 -16 -60 -16 -121 1 -169 -35
-221 -181 -263 l-26 -8 34 45 c19 24 34 50 34 56 1 27 12 94 21 127 14 54 11
57 -24 20 -60 -64 -85 -105 -98 -155 -18 -74 -36 -104 -67 -111 -51 -11 -127
-37 -162 -54 -39 -20 -100 -77 -100 -93 0 -28 -14 9 -25 68 l-12 65 87 46
c120 63 178 110 221 174 34 53 140 305 132 314 -3 2 -37 -17 -76 -43 -40 -27
-105 -70 -145 -96 -115 -76 -157 -135 -203 -285 l-23 -75 -8 40 c-27 140 4
368 67 482 29 53 37 60 91 81 186 72 271 136 332 249 55 105 94 296 72 359 -6
16 -9 13 -24 -16 -16 -34 -70 -100 -81 -100 -4 0 -4 3 -2 8 4 5 -244 6 -448 2
-5 0 -5 -4 2 -8 7 -4 108 -7 225 -6 l213 2 -104 -51 c-113 -56 -185 -117 -222
-190 -17 -32 -24 -68 -29 -152 -6 -96 -11 -118 -37 -170 -17 -33 -39 -87 -49
-120 l-17 -60 -13 60 c-7 33 -17 72 -23 88 -11 30 7 90 48 158 11 18 23 52 27
75 6 44 -12 154 -26 154 -4 0 -24 -33 -43 -72 -36 -74 -56 -139 -51 -171 1 -9
1 -17 -1 -17 -6 0 -86 140 -104 182 -24 57 -19 82 29 130 22 23 40 44 40 47 0
3 7 27 15 53 7 26 11 50 6 52 -12 8 -95 -63 -109 -92 -12 -25 -12 -23 -9 26 3
41 11 62 37 93 17 22 36 57 42 77 10 37 16 44 104 117 60 50 190 162 224 193
110 102 310 272 318 272 4 0 32 -22 62 -48 44 -39 362 -320 525 -463 17 -15
43 -37 58 -50 30 -26 46 -86 24 -95 -11 -4 -280 -11 -485 -13 -52 -1 -91 -5
-88 -10 3 -5 63 -7 133 -6 277 8 433 8 440 1 7 -7 5 -1367 -2 -1374 -2 -2
-249 -5 -548 -5 -300 -1 -549 -5 -553 -9 -4 -5 242 -8 547 -8 418 0 558 3 567
12 9 9 12 189 12 750 l0 738 -27 28 c-28 27 -164 146 -363 317 -58 50 -147
127 -199 173 -52 45 -101 82 -109 82 -8 0 -54 -35 -101 -78 -145 -132 -162
-147 -178 -156 -13 -7 -15 6 -12 107 5 132 11 125 -91 117z m74 -131 c-2 -74
1 -117 7 -114 5 4 9 2 9 -3 0 -6 -10 -12 -22 -16 -13 -3 -43 -23 -68 -45 -25
-22 -48 -41 -51 -41 -3 0 -4 46 -3 103 1 56 2 131 3 167 l1 65 64 2 64 1 -4
-119z m352 -619 c-21 -100 -68 -200 -93 -195 -10 2 -26 4 -37 4 -15 1 -16 4
-7 15 7 8 29 66 50 130 24 73 49 128 67 148 l29 34 3 -31 c2 -18 -4 -64 -12
-105z m-85 19 c-5 -13 -19 -59 -32 -102 -23 -79 -41 -105 -76 -111 -27 -6 -84
-22 -104 -30 -14 -6 -17 2 -21 46 -3 29 -8 60 -12 68 -4 10 8 24 41 45 46 30
205 112 211 109 1 -1 -1 -12 -7 -25z m-248 -214 c0 -30 3 -55 8 -55 6 0 26 7
47 16 20 9 73 18 116 21 l80 6 -23 -31 c-47 -67 -211 -170 -249 -157 -29 9
-73 54 -77 77 -12 59 61 216 88 189 6 -6 11 -36 10 -66z m-424 -508 c11 -29
32 -108 46 -177 25 -115 81 -275 108 -309 9 -11 9 -13 0 -8 -6 4 -27 35 -46
70 -19 34 -46 83 -61 109 -25 44 -50 134 -62 217 -3 21 -21 80 -39 132 l-34
94 34 -38 c18 -21 42 -62 54 -90z m591 73 c-24 -28 -68 -70 -98 -93 -92 -70
-155 -132 -187 -186 -36 -61 -48 -65 -29 -10 40 116 88 169 239 267 61 40 112
72 113 72 2 0 -15 -23 -38 -50z m-651 -65 c11 -33 27 -98 35 -145 21 -117 28
-137 75 -214 22 -38 41 -70 41 -72 0 -3 11 -22 25 -44 14 -22 23 -40 20 -40
-12 0 -117 111 -148 157 -51 76 -66 132 -71 268 -3 66 -7 134 -10 150 -9 43 8
13 33 -60z m145 -40 c23 -48 43 -133 51 -216 7 -74 21 -125 69 -251 14 -38 24
-68 21 -68 -9 0 -77 126 -109 203 -32 79 -41 107 -51 172 -17 102 -47 203 -72
240 -27 40 -12 38 32 -5 24 -24 51 -58 59 -75z m534 78 c-2 -5 -9 -19 -15 -33
-82 -181 -110 -215 -241 -293 -44 -26 -83 -47 -87 -47 -4 0 37 42 92 94 54 52
119 123 144 157 48 67 98 129 106 129 2 0 3 -3 1 -7z m-109 -100 c-34 -50
-218 -237 -226 -230 -5 6 32 73 64 115 20 27 179 162 191 162 2 0 -12 -21 -29
-47z"/>
<path d="M3787 3893 c-7 -13 -1 -323 7 -330 7 -7 100 -4 173 5 9 2 11 30 9
105 -2 56 -4 130 -5 165 l-1 62 -89 0 c-50 0 -92 -3 -94 -7z m76 -12 c4 -1 7
-14 7 -31 0 -28 -3 -30 -35 -30 -32 0 -35 3 -35 28 0 35 4 39 32 36 13 -1 26
-3 31 -3z m83 -4 c6 -3 11 -17 10 -29 -1 -19 -7 -23 -33 -24 -18 -1 -33 2 -34
5 0 3 -2 15 -4 26 -6 29 30 42 61 22z m-79 -186 l-2 -116 -31 -2 -31 -1 0 116
-1 117 34 1 33 1 -2 -116z m91 1 l3 -112 -38 0 -38 0 -1 116 -1 115 36 -3 36
-4 3 -112z"/>
<path d="M2203 2389 c-49 -14 -83 -62 -83 -116 0 -38 5 -50 34 -79 19 -19 42
-34 53 -35 10 0 28 -2 41 -3 22 -3 89 31 79 40 -2 2 -25 -1 -51 -8 -41 -11
-50 -10 -81 6 -47 25 -59 65 -40 125 13 41 91 64 136 41 11 -6 24 -8 31 -4 7
4 0 12 -17 21 -36 20 -64 23 -102 12z"/>
<path d="M2420 2327 c-19 -40 -44 -93 -56 -119 -17 -37 -19 -48 -8 -48 7 0 20
14 29 30 15 29 18 30 81 30 63 0 65 -1 75 -30 6 -16 17 -30 25 -30 8 0 14 2
14 5 0 16 -105 225 -115 229 -7 2 -25 -24 -45 -67z m73 -29 l25 -57 -54 0
c-30 0 -54 2 -54 4 0 8 52 116 55 113 2 -2 14 -29 28 -60z"/>
<path d="M2644 2388 c-12 -6 -26 -20 -32 -33 -17 -36 6 -66 67 -90 62 -23 82
-45 62 -69 -17 -20 -80 -21 -108 -1 -16 11 -24 12 -29 4 -8 -14 20 -32 61 -40
47 -8 90 7 104 37 18 40 -6 69 -74 90 -57 18 -77 43 -55 68 17 21 44 25 83 11
29 -10 37 -10 41 1 9 23 -82 39 -120 22z"/>
<path d="M2904 2392 c-6 -4 -13 -14 -16 -22 -4 -8 -27 -59 -52 -112 -34 -74
-42 -98 -30 -98 8 0 20 14 25 30 11 29 12 30 79 30 67 0 68 -1 79 -30 5 -16
17 -30 25 -30 12 0 14 5 7 23 -14 36 -100 217 -103 217 -2 0 -8 -4 -14 -8z
m51 -131 c6 -20 3 -21 -45 -21 -49 0 -51 1 -44 23 3 12 15 40 26 61 l20 39 18
-40 c10 -22 21 -50 25 -62z"/>
<path d="M3216 2385 c-48 -17 -54 -23 -71 -70 -36 -106 65 -187 178 -143 26
10 28 15 25 57 -3 50 -23 59 -24 12 -1 -58 -51 -78 -114 -46 -57 30 -61 122
-6 160 24 17 79 20 107 5 27 -15 45 -1 21 16 -30 21 -73 24 -116 9z"/>
<path d="M3423 2383 c-5 -10 -8 -63 -8 -118 1 -79 4 -101 16 -103 11 -2 14 18
13 113 -1 117 -5 141 -21 108z"/>
<path d="M3760 2278 c0 -92 3 -118 13 -118 8 0 13 9 12 23 -4 40 10 54 50 49
28 -3 41 -12 58 -38 12 -19 30 -34 40 -34 16 0 14 6 -12 37 l-30 36 23 18 c30
24 38 66 20 101 -16 31 -38 39 -118 42 l-56 2 0 -118z m135 78 c10 -7 20 -24
22 -38 5 -36 -27 -60 -84 -63 l-48 -2 1 51 c1 28 2 54 3 59 2 13 86 8 106 -7z"/>
<path d="M4004 2391 c-2 -2 -4 -55 -4 -118 l0 -113 38 -1 c135 -4 185 28 185
119 0 46 -24 86 -62 101 -27 12 -148 21 -157 12z m169 -49 c16 -17 22 -34 22
-68 0 -62 -33 -90 -111 -93 l-54 -2 -1 40 c-1 23 -1 52 -1 66 0 14 0 39 1 56
l1 31 60 -4 c45 -3 66 -10 83 -26z"/>
<path d="M4280 2280 c0 -94 3 -120 13 -120 20 0 20 227 0 234 -10 4 -13 -19
-13 -114z"/>
<path d="M4387 2393 c-4 -3 -7 -57 -7 -120 0 -92 3 -113 14 -113 12 0 15 18
14 85 0 48 1 88 3 90 2 2 36 -37 74 -86 39 -49 76 -89 83 -89 9 0 12 30 12
115 0 95 -3 115 -15 115 -12 0 -15 -15 -14 -72 1 -40 1 -82 0 -92 -1 -13 -26
13 -77 77 -80 103 -77 100 -87 90z"/>
<path d="M4700 2382 c-103 -50 -77 -210 35 -222 56 -6 79 1 111 36 28 29 34
43 34 81 0 38 -5 50 -34 79 -19 19 -42 35 -52 35 -11 1 -29 3 -41 4 -12 1 -36
-5 -53 -13z m117 -30 c29 -22 42 -68 32 -108 -12 -41 -63 -69 -111 -60 -45 8
-68 34 -75 85 -5 35 -2 44 25 71 36 35 92 41 129 12z"/>
<path d="M3551 2313 c-18 -43 -38 -87 -45 -98 -23 -37 -26 -55 -10 -55 9 0 21
14 27 30 11 29 13 30 78 30 65 0 67 -1 79 -30 7 -16 19 -30 26 -30 18 0 18 -3
-9 56 -13 27 -36 77 -52 112 -39 85 -54 82 -94 -15z m77 -6 c12 -28 22 -55 22
-58 0 -3 -23 -6 -51 -8 -28 -1 -49 2 -48 6 2 5 13 32 23 61 11 29 22 52 25 52
4 0 16 -24 29 -53z"/>
</g>
</svg>
