<svg xmlns="http://www.w3.org/2000/svg" xmlns:xlink="http://www.w3.org/1999/xlink" width="100" zoomAndPan="magnify" viewBox="0 0 300 300" height="100" preserveAspectRatio="xMidYMid meet" version="1.0"><defs><g/><clipPath id="id1"><path d="M 137.863281 81.523438 L 221.863281 81.523438 L 221.863281 231.523438 L 137.863281 231.523438 Z M 137.863281 81.523438 " clip-rule="nonzero"/></clipPath></defs><g clip-path="url(#id1)"><path fill="#cc5a5a" d="M 221.820312 229.066406 C 221.882812 229.867188 221.476562 230.929688 220.566406 231.328125 C 220.34375 231.433594 220.097656 231.492188 219.851562 231.496094 L 219.289062 231.5 L 218.195312 231.496094 L 213.820312 231.492188 L 196.316406 231.46875 L 161.3125 231.382812 L 161.3125 230.648438 L 196.316406 230.5625 L 213.820312 230.539062 L 218.195312 230.53125 L 219.289062 230.527344 L 219.820312 230.527344 C 219.933594 230.523438 220.050781 230.496094 220.164062 230.445312 C 220.378906 230.34375 220.574219 230.152344 220.691406 229.910156 C 220.8125 229.648438 220.859375 229.429688 220.839844 229.0625 C 220.777344 226.136719 220.796875 223.210938 220.804688 220.285156 L 220.890625 185.167969 L 220.929688 167.609375 L 220.949219 158.832031 L 220.953125 156.292969 C 210.679688 156.109375 200.371094 156.738281 190.085938 156.746094 C 189.582031 156.746094 189.582031 155.960938 190.085938 155.960938 C 200.371094 155.957031 210.683594 155.324219 220.957031 155.511719 L 220.960938 154.445312 L 220.964844 152.25 C 220.964844 151.851562 220.964844 151.59375 220.832031 151.316406 C 220.714844 151.050781 220.507812 150.832031 220.277344 150.71875 L 220.257812 150.710938 L 220.207031 150.671875 C 219.445312 150.0625 218.671875 149.46875 217.921875 148.847656 C 217.171875 148.226562 216.445312 147.578125 215.710938 146.9375 L 211.316406 143.085938 L 202.554688 135.355469 L 193.800781 127.609375 L 189.40625 123.761719 L 187.207031 121.835938 L 186.113281 120.871094 C 185.738281 120.558594 185.40625 120.199219 184.953125 119.980469 L 185.023438 120.03125 C 184.847656 119.992188 184.691406 120.027344 184.558594 120.019531 C 184.429688 120.023438 184.300781 120.058594 184.179688 120.121094 C 181.273438 122.675781 178.378906 125.246094 175.351562 127.660156 C 175.113281 127.757812 174.910156 127.894531 174.738281 128.070312 L 174.195312 128.554688 L 170.925781 131.472656 L 168.75 133.425781 C 168.027344 134.082031 165.285156 136.867188 164.460938 137.398438 L 162.25 139.308594 C 160.78125 140.585938 159.289062 141.839844 157.792969 143.085938 L 148.859375 150.621094 L 148.378906 150.066406 L 157.066406 142.242188 C 158.507812 140.933594 159.949219 139.625 161.417969 138.34375 L 163.609375 136.414062 C 164.253906 135.667969 167.382812 133.332031 168.132812 132.710938 L 170.363281 130.820312 L 172.589844 128.925781 L 173.703125 127.980469 L 174.257812 127.507812 C 174.457031 127.363281 174.617188 127.175781 174.746094 126.953125 C 177.570312 124.265625 180.53125 121.734375 183.476562 119.191406 L 183.519531 119.152344 L 183.566406 119.125 C 183.859375 118.957031 184.207031 118.855469 184.558594 118.859375 C 184.910156 118.855469 185.242188 119.023438 185.488281 119.230469 L 185.558594 119.28125 C 185.835938 119.707031 186.238281 119.984375 186.597656 120.3125 L 187.703125 121.269531 L 189.910156 123.179688 L 194.324219 127.007812 L 203.1875 134.621094 L 212.042969 142.242188 L 216.457031 146.070312 C 217.195312 146.710938 217.933594 147.339844 218.652344 148 C 219.371094 148.660156 220.0625 149.34375 220.773438 150.015625 L 220.707031 149.964844 C 221.101562 150.222656 221.382812 150.605469 221.539062 151.015625 C 221.707031 151.414062 221.707031 151.90625 221.699219 152.238281 L 221.710938 158.824219 L 221.730469 167.605469 L 221.769531 185.160156 L 221.855469 220.277344 C 221.863281 223.210938 221.882812 226.136719 221.820312 229.066406 Z M 199.976562 187.789062 C 199.875 191.953125 199.019531 196.765625 197.414062 200.609375 C 196.074219 203.800781 193.632812 206.292969 191.5 208.960938 C 191.257812 209.339844 191.011719 209.710938 190.742188 210.066406 C 188.378906 213.203125 184.839844 214.898438 181.121094 215.851562 C 177.933594 216.667969 174.09375 217.148438 170.550781 218.160156 C 172.085938 218.125 173.628906 218.34375 175.144531 218.78125 C 178.371094 219.714844 181.648438 221.058594 185.066406 220.390625 C 185.378906 220.328125 185.703125 220.65625 185.503906 220.964844 C 183.953125 223.402344 179.984375 223.992188 177.363281 223.632812 C 175.4375 223.363281 173.566406 222.703125 171.871094 221.757812 C 170.742188 221.128906 169.476562 220.007812 168.175781 219.84375 C 166.316406 219.609375 164.414062 220.765625 163.132812 222.007812 C 161.355469 223.746094 159.960938 226.320312 160.328125 228.875 C 160.378906 229.261719 160.476562 229.640625 160.472656 230.027344 C 160.46875 230.414062 160.351562 230.824219 160.054688 231.074219 C 159.699219 231.371094 158.539062 231.238281 158.875 230.582031 C 158.890625 230.550781 158.902344 230.511719 158.917969 230.476562 C 158.765625 230.519531 158.601562 230.476562 158.515625 230.296875 C 158.433594 230.128906 158.34375 229.964844 158.257812 229.800781 C 155.363281 227.785156 152.949219 225.222656 150.367188 222.804688 C 147.789062 220.390625 145.3125 217.894531 143.6875 214.710938 C 141.789062 211.003906 140.964844 207.457031 141.046875 203.304688 C 141.136719 198.699219 140.609375 194.070312 139.828125 189.539062 C 139.769531 189.203125 140.082031 188.929688 140.402344 189.097656 C 143.789062 190.859375 147.207031 192.972656 149.671875 195.949219 C 151.976562 198.730469 153.257812 202.246094 153.808594 205.785156 C 154.519531 210.40625 154.335938 214.890625 156.246094 219.265625 C 157.660156 222.507812 159.273438 225.890625 159.257812 229.503906 C 159.617188 228.023438 159.402344 226.339844 159.242188 224.890625 C 159 222.726562 158.671875 220.585938 158.191406 218.464844 C 157.15625 213.90625 156.363281 209.4375 156.441406 204.734375 C 156.480469 202.398438 156.679688 200.089844 156.730469 197.757812 C 156.738281 197.3125 156.558594 197.042969 156.449219 196.625 C 156.320312 196.132812 156.265625 195.625 156.167969 195.128906 C 155.859375 193.511719 155.621094 191.875 155.195312 190.285156 C 154.515625 187.765625 153.664062 185.238281 152.527344 182.886719 C 151.515625 180.792969 150.25 178.832031 149.046875 176.84375 C 146.160156 177.015625 143.859375 177.246094 141.878906 174.761719 C 140.839844 173.460938 140.203125 171.941406 139.5 170.449219 C 138.855469 169.09375 138.144531 167.804688 137.871094 166.308594 C 137.792969 165.890625 138.355469 165.605469 138.585938 166.007812 C 139.984375 168.441406 142.515625 170.09375 144.75 171.699219 C 145.578125 172.292969 146.453125 172.886719 147.230469 173.574219 C 146.785156 172.675781 146.375 171.757812 146.042969 170.796875 C 144.546875 166.441406 144.226562 161.589844 145.472656 157.132812 C 145.476562 157.109375 145.488281 157.082031 145.496094 157.054688 C 145.488281 157.027344 145.476562 156.996094 145.476562 156.960938 C 145.273438 154.25 144.417969 151.375 144.964844 148.648438 C 145.195312 147.488281 145.714844 146.417969 146.367188 145.433594 C 147.332031 143.984375 148.597656 143.15625 148.695312 141.253906 C 150.519531 143.097656 150.453125 145.589844 150.425781 147.992188 C 150.40625 149.496094 150.367188 151.082031 149.773438 152.488281 C 149.046875 154.214844 147.515625 155.347656 146.4375 156.832031 C 145.675781 159.453125 145.386719 162.144531 145.589844 164.832031 C 145.8125 163.359375 146.117188 161.902344 146.992188 160.675781 C 148.253906 158.910156 150.382812 158.078125 151.785156 156.449219 C 152.0625 156.128906 152.511719 156.476562 152.4375 156.828125 C 152.011719 158.875 151.65625 161.035156 150.636719 162.882812 C 149.910156 164.199219 148.566406 165.074219 147.5625 166.175781 C 146.300781 167.554688 146.191406 168.863281 146.796875 170.59375 C 148.273438 174.824219 151.113281 178.347656 153.09375 182.324219 C 152.910156 180.804688 152.941406 179.257812 153.261719 177.765625 C 154.015625 174.246094 156.253906 171.046875 157.578125 167.722656 C 157.71875 167.355469 158.1875 167.347656 158.328125 167.722656 C 159.425781 170.625 159.851562 173.878906 159.183594 176.9375 C 158.839844 178.496094 158.132812 179.78125 157.285156 181.117188 C 156.171875 182.859375 155.609375 184.78125 154.988281 186.742188 C 154.980469 186.773438 154.960938 186.792969 154.945312 186.816406 C 155.355469 188.003906 155.71875 189.207031 156.035156 190.421875 C 156.589844 192.535156 156.808594 194.71875 157.339844 196.835938 C 157.78125 194.738281 158.378906 192.675781 159.140625 190.6875 C 159.75 189.101562 160.28125 187.300781 161.238281 185.882812 C 162.152344 184.535156 162.691406 182.914062 162.992188 181.304688 C 163.292969 179.660156 162.835938 178.125 162.839844 176.476562 C 162.839844 174.800781 163.03125 173.105469 163.519531 171.496094 C 164.269531 169.027344 165.835938 166.84375 167.648438 164.984375 C 167.648438 164.808594 167.804688 164.667969 167.988281 164.636719 C 168.320312 164.3125 168.65625 163.992188 169 163.691406 C 171.796875 161.210938 175.222656 159.773438 178.570312 158.207031 C 180.5 157.300781 182.417969 156.410156 183.960938 154.894531 C 183.972656 154.878906 183.992188 154.859375 184.007812 154.847656 C 184.023438 154.820312 184.035156 154.796875 184.050781 154.769531 C 184.101562 154.691406 184.167969 154.644531 184.238281 154.617188 C 185.539062 153.335938 187.246094 151.59375 187.308594 149.777344 C 187.324219 149.273438 188.105469 149.273438 188.085938 149.777344 C 188.085938 149.8125 188.082031 149.851562 188.078125 149.882812 C 188.082031 149.894531 188.085938 149.902344 188.085938 149.914062 C 188.257812 151.984375 188.464844 153.796875 188.265625 155.902344 C 188.085938 157.832031 187.71875 159.742188 187.207031 161.609375 C 186.175781 165.355469 184.664062 169.214844 182.351562 172.355469 C 181.289062 173.792969 180.050781 175.097656 178.699219 176.261719 C 176.777344 177.917969 174.613281 179.296875 172.324219 180.390625 C 170.066406 181.464844 167.664062 182.054688 165.355469 182.953125 C 164.792969 183.171875 164.121094 183.441406 163.628906 183.796875 C 163.207031 184.105469 162.863281 184.640625 162.5625 185.058594 C 161.875 186.015625 161.320312 187.066406 160.839844 188.140625 C 159.902344 190.246094 159.261719 192.46875 158.664062 194.695312 C 157.386719 199.441406 156.988281 204.320312 157.375 209.21875 C 157.542969 211.386719 157.953125 213.496094 158.398438 215.605469 C 160.316406 209.699219 161.078125 203.699219 165.871094 199.261719 C 168.242188 197.0625 171.078125 195.347656 173.78125 193.59375 C 175.359375 192.570312 177.03125 191.707031 178.601562 190.671875 C 179.367188 190.167969 180.109375 189.628906 180.789062 189.015625 C 181.128906 188.710938 181.933594 187.601562 182.417969 188.324219 C 182.621094 188.632812 182.421875 189.078125 182.289062 189.359375 C 181.832031 190.3125 181.289062 191.199219 180.894531 192.1875 C 180.085938 194.21875 179.507812 196.335938 178.699219 198.367188 C 177.589844 201.140625 176.367188 203.921875 174.554688 206.3125 C 172.59375 208.898438 169.898438 210.796875 167.121094 212.40625 C 164.417969 213.96875 161.714844 215.71875 158.703125 216.625 C 158.671875 216.632812 158.644531 216.625 158.613281 216.625 C 159.042969 218.632812 159.480469 220.636719 159.742188 222.6875 C 159.84375 223.476562 159.980469 224.316406 160.089844 225.175781 C 161.96875 220.871094 166.3125 218.589844 170.597656 217.324219 C 171.527344 217.046875 172.46875 216.8125 173.414062 216.574219 C 174.1875 216.378906 175.035156 216.359375 175.753906 215.976562 C 176.449219 215.605469 176.957031 214.761719 177.292969 214.0625 C 178.082031 212.417969 178.214844 210.5625 178.710938 208.828125 C 179.691406 205.398438 182.714844 203.589844 184.691406 200.8125 C 184.984375 200.402344 185.578125 200.75 185.363281 201.210938 C 183.738281 204.703125 184.644531 208.933594 182.515625 212.242188 C 181.707031 213.492188 180.488281 214.75 179.082031 215.53125 C 182.535156 214.8125 185.945312 213.742188 188.589844 211.3125 C 189.171875 210.777344 189.699219 210.183594 190.1875 209.542969 C 190.1875 209.503906 190.191406 209.46875 190.203125 209.425781 C 190.980469 206.9375 191.566406 204.671875 191.300781 202.042969 C 191.070312 199.765625 190.992188 197.5 191.636719 195.269531 C 192.710938 191.558594 196.019531 189.488281 199.046875 187.460938 C 199.191406 187.367188 199.324219 187.386719 199.429688 187.457031 C 199.660156 187.351562 199.984375 187.460938 199.976562 187.789062 Z M 159.972656 212.921875 C 162.230469 208.792969 164.292969 204.839844 168.195312 201.820312 C 170.886719 199.738281 173.789062 197.945312 176.140625 195.453125 C 177.65625 193.851562 178.964844 192.082031 180.324219 190.351562 C 179.195312 191.199219 177.964844 191.925781 176.71875 192.671875 C 173.839844 194.398438 170.941406 196.230469 168.265625 198.261719 C 165.429688 200.410156 163.183594 203.078125 161.898438 206.425781 C 161.085938 208.535156 160.554688 210.734375 159.972656 212.921875 Z M 170.179688 201.3125 C 167.515625 203.253906 165.238281 205.265625 163.480469 208.089844 C 162.355469 209.898438 161.414062 211.8125 160.417969 213.699219 C 161 213.109375 161.554688 212.496094 162.179688 211.941406 C 163.085938 211.132812 164.0625 210.40625 164.980469 209.605469 C 166.988281 207.847656 168.875 205.875 170.65625 203.878906 C 172.601562 201.695312 174.203125 199.230469 175.902344 196.855469 C 175.972656 196.757812 176.046875 196.664062 176.121094 196.566406 C 174.304688 198.34375 172.234375 199.816406 170.179688 201.3125 Z M 159.550781 215.5 C 162.257812 214.496094 164.800781 212.863281 167.257812 211.402344 C 170.132812 209.695312 172.773438 207.644531 174.636719 204.828125 C 176.355469 202.222656 177.511719 199.285156 178.621094 196.382812 C 178.988281 195.425781 179.316406 194.410156 179.667969 193.398438 C 178.578125 194.921875 177.234375 196.320312 176.175781 197.800781 C 174.5625 200.050781 173.050781 202.363281 171.207031 204.429688 C 169.28125 206.585938 167.234375 208.710938 165.03125 210.585938 C 163.195312 212.148438 161.511719 214.101562 159.550781 215.5 Z M 181.386719 164.367188 C 180.785156 166.335938 180.078125 168.394531 178.707031 169.957031 C 179.109375 169.949219 179.515625 169.945312 179.917969 169.957031 C 180.839844 169.976562 181.820312 170.242188 182.738281 170.253906 C 183.246094 169.429688 183.730469 168.578125 184.140625 167.675781 C 185.515625 164.679688 186.597656 161.511719 187.15625 158.257812 C 187.441406 156.617188 187.605469 154.9375 187.644531 153.269531 C 187.65625 152.746094 187.605469 152.242188 187.539062 151.742188 C 186.851562 153.105469 185.640625 154.316406 184.628906 155.3125 C 182.875 158.179688 182.359375 161.199219 181.386719 164.367188 Z M 168.59375 165.113281 C 169.949219 167.144531 170.074219 169.734375 169.726562 172.121094 C 171.878906 171.203125 174.097656 170.4375 176.425781 170.121094 C 176.839844 170.0625 177.253906 170.027344 177.667969 170 C 177.683594 169.941406 177.714844 169.878906 177.769531 169.824219 C 179.769531 167.871094 180.5625 164.734375 181.171875 162.082031 C 181.617188 160.15625 182.164062 158.394531 182.988281 156.683594 C 180.980469 158.105469 178.609375 159.015625 176.394531 160.054688 C 173.667969 161.339844 170.871094 162.988281 168.59375 165.113281 Z M 163.644531 177.582031 C 163.648438 177.644531 163.65625 177.703125 163.660156 177.765625 C 163.722656 177.777344 163.785156 177.796875 163.84375 177.847656 C 164.558594 178.441406 165.210938 179.101562 165.921875 179.699219 C 166.496094 180.179688 167.03125 180.757812 167.695312 181.109375 C 167.769531 181.148438 167.8125 181.199219 167.84375 181.257812 C 168.210938 181.109375 168.515625 180.984375 168.699219 180.914062 C 170.171875 180.367188 171.605469 179.722656 173.015625 179.039062 C 176.808594 177.214844 179.945312 174.476562 182.246094 171.054688 C 180.585938 171.015625 178.929688 170.667969 177.222656 170.816406 C 174.507812 171.058594 171.90625 172.003906 169.429688 173.097656 C 169.113281 173.238281 168.789062 173.011719 168.855469 172.65625 C 169.296875 170.332031 169.292969 167.726562 168.023438 165.671875 C 166.113281 167.605469 164.636719 169.90625 164.015625 172.65625 C 163.648438 174.265625 163.566406 175.933594 163.644531 177.582031 Z M 154.527344 225.699219 C 154.351562 225.433594 154.195312 225.195312 154.070312 225.019531 C 152.207031 222.414062 150.964844 219.480469 149.257812 216.78125 C 148.128906 215.003906 146.964844 213.210938 146.238281 211.226562 C 145.414062 208.976562 145.246094 206.519531 144.890625 204.164062 C 144.519531 201.703125 143.929688 199.417969 143.054688 197.09375 C 142.324219 195.15625 141.921875 192.984375 140.863281 191.195312 C 141.382812 194.519531 141.753906 197.875 141.832031 201.230469 C 141.882812 203.382812 141.628906 205.566406 141.972656 207.699219 C 142.3125 209.789062 143.132812 211.792969 144.046875 213.6875 C 145.6875 217.085938 148.195312 219.707031 150.914062 222.253906 C 152.136719 223.398438 153.316406 224.566406 154.527344 225.699219 Z M 156.867188 227.375 C 155.566406 225.265625 154.144531 223.222656 153.1875 220.933594 C 152.390625 219.023438 151.757812 217.0625 150.914062 215.167969 C 150.289062 213.765625 149.808594 212.359375 149.492188 210.855469 C 148.726562 207.203125 148.292969 203.476562 147.222656 199.894531 C 146.332031 196.898438 144.566406 192.191406 141.472656 190.6875 C 142.328125 192.089844 142.65625 193.628906 143.191406 195.207031 C 143.886719 197.269531 144.75 199.226562 145.195312 201.367188 C 146.097656 205.695312 146.125 209.933594 148.375 213.863281 C 149.347656 215.566406 150.507812 217.160156 151.433594 218.890625 C 152.128906 220.191406 152.710938 221.542969 153.5 222.792969 C 154.074219 223.703125 154.699219 224.589844 155.347656 225.449219 C 155.539062 225.703125 156.242188 226.769531 156.867188 227.375 Z M 158.433594 228.441406 C 158.136719 224.988281 156.429688 221.8125 155.132812 218.640625 C 153.726562 215.183594 153.632812 211.609375 153.28125 207.945312 C 152.878906 203.765625 151.714844 199.519531 148.929688 196.273438 C 147.671875 194.808594 146.183594 193.570312 144.585938 192.476562 C 145.527344 193.746094 146.257812 195.222656 146.828125 196.519531 C 148.347656 199.972656 148.972656 203.714844 149.632812 207.40625 C 149.996094 209.425781 150.292969 211.492188 151.019531 213.417969 C 151.707031 215.25 152.585938 216.988281 153.238281 218.835938 C 154.484375 222.332031 156.671875 225.238281 158.433594 228.441406 Z M 168.648438 119.289062 C 168.609375 119.277344 168.574219 119.265625 168.53125 119.265625 C 165.941406 119.296875 163.363281 119.523438 160.773438 119.539062 C 160.511719 119.542969 160.390625 119.75 160.398438 119.953125 C 160.394531 119.96875 160.382812 119.980469 160.382812 120 C 160.1875 121.578125 160.421875 123.148438 160.382812 124.730469 C 160.34375 126.445312 160.140625 128.140625 160.132812 129.859375 C 160.113281 133.207031 160.085938 136.570312 160.113281 139.917969 C 160.066406 140.066406 160.070312 140.167969 160.125 140.332031 C 160.265625 140.730469 160.898438 140.6875 160.890625 140.226562 C 160.890625 140.136719 160.890625 140.046875 160.890625 139.960938 C 160.890625 139.9375 160.894531 139.910156 160.890625 139.890625 C 160.867188 136.550781 160.890625 133.199219 160.914062 129.859375 C 160.921875 128.257812 161.085938 126.667969 161.148438 125.070312 C 161.210938 123.480469 160.988281 121.902344 161.132812 120.320312 C 163.507812 120.289062 165.871094 120.105469 168.246094 120.0625 C 167.882812 121.84375 168.097656 123.871094 168.015625 125.65625 C 167.960938 126.867188 167.914062 128.078125 167.890625 129.292969 C 167.878906 129.914062 167.882812 130.539062 167.871094 131.160156 C 167.859375 131.765625 167.710938 132.386719 167.609375 132.988281 C 167.472656 133.789062 168.652344 133.515625 168.648438 133.035156 C 168.640625 130.828125 168.671875 128.628906 168.761719 126.425781 C 168.851562 124.34375 168.550781 121.773438 169.117188 119.765625 C 169.203125 119.4375 168.902344 119.242188 168.648438 119.289062 Z M 213 183.453125 C 212.988281 183.6875 212.796875 183.8125 212.585938 183.839844 C 209.519531 184.226562 206.460938 184.449219 203.386719 184.457031 C 203.082031 184.457031 202.980469 184.179688 203.054688 183.957031 C 203.042969 183.941406 203.03125 183.933594 203.027344 183.917969 C 202.699219 183.078125 202.871094 181.992188 202.890625 181.097656 C 202.921875 179.585938 202.976562 178.082031 202.945312 176.570312 C 202.886719 173.304688 202.648438 170.046875 202.796875 166.765625 C 202.800781 166.714844 202.8125 166.679688 202.828125 166.640625 C 202.804688 166.425781 202.941406 166.183594 203.222656 166.183594 C 204.996094 166.175781 206.773438 166.070312 208.546875 166.058594 C 209.359375 166.050781 210.167969 166.023438 210.980469 166.007812 C 211.265625 166.003906 211.796875 166.121094 212.050781 165.96875 C 212.28125 165.832031 212.484375 165.945312 212.570312 166.121094 C 212.691406 166.175781 212.78125 166.285156 212.773438 166.457031 C 212.503906 172.128906 213.320312 177.796875 213 183.453125 Z M 207.964844 166.859375 C 208.085938 167.945312 208.101562 169.066406 208.082031 170.191406 C 209.335938 170.199219 210.695312 170.371094 211.914062 170.195312 C 211.910156 169.0625 211.921875 167.929688 211.972656 166.792969 C 211.226562 166.953125 210.121094 166.816406 209.550781 166.824219 C 209.027344 166.832031 208.496094 166.847656 207.964844 166.859375 Z M 203.582031 166.949219 C 203.539062 168.082031 203.542969 169.214844 203.566406 170.34375 C 204.816406 170.335938 206.070312 170.25 207.324219 170.203125 C 207.335938 169.070312 207.308594 167.957031 207.171875 166.878906 C 205.976562 166.90625 204.78125 166.9375 203.582031 166.949219 Z M 207.292969 183.566406 C 207.421875 180.996094 207.234375 178.375 207.195312 175.808594 C 207.167969 174.242188 207.265625 172.605469 207.308594 170.976562 C 206.0625 171.023438 204.820312 171.109375 203.578125 171.121094 C 203.617188 172.59375 203.679688 174.070312 203.714844 175.546875 C 203.746094 176.917969 203.773438 178.289062 203.730469 179.667969 C 203.699219 180.78125 203.320312 182.496094 203.726562 183.535156 C 203.746094 183.585938 203.753906 183.636719 203.753906 183.6875 C 204.933594 183.671875 206.113281 183.632812 207.292969 183.566406 Z M 212.199219 182.023438 C 212.144531 181.132812 212.105469 180.246094 212.097656 179.351562 C 212.070312 176.554688 211.953125 173.757812 211.925781 170.957031 C 210.734375 171.101562 209.484375 170.925781 208.289062 170.945312 C 208.214844 170.945312 208.140625 170.953125 208.070312 170.953125 C 208.03125 172.335938 207.957031 173.722656 207.976562 175.066406 C 208.015625 177.863281 208.222656 180.703125 208.085938 183.507812 C 208.839844 183.453125 209.589844 183.410156 210.34375 183.335938 C 211.515625 183.214844 212.277344 183.339844 212.199219 182.023438 Z M 182.992188 155.65625 C 179.914062 155.675781 171.144531 155.808594 168.074219 155.894531 C 164.933594 155.976562 161.792969 155.753906 158.652344 155.738281 C 158.152344 155.734375 158.152344 156.515625 158.652344 156.519531 C 161.792969 156.539062 164.933594 156.757812 168.074219 156.675781 C 171.144531 156.589844 179.914062 156.457031 182.992188 156.4375 C 183.492188 156.4375 183.492188 155.652344 182.992188 155.65625 Z M 164.035156 104.132812 C 163.808594 105.886719 162.492188 108.246094 162.277344 110.3125 C 162.242188 110.664062 162.816406 111.402344 162.980469 111.710938 C 163.242188 112.214844 163.515625 112.71875 163.714844 113.25 C 164.136719 114.355469 164.316406 115.578125 164.203125 116.761719 C 164.175781 117.09375 164.109375 117.445312 163.878906 117.691406 C 163.648438 117.933594 163.195312 117.988281 163 117.71875 C 162.875 117.550781 162.882812 117.316406 162.902344 117.109375 C 162.957031 116.355469 163.019531 115.59375 162.914062 114.847656 C 162.457031 111.558594 159.449219 112.738281 157.300781 113.535156 C 155.652344 114.148438 154.113281 114.710938 152.34375 114.9375 C 147.824219 115.511719 143.421875 114.210938 139.375 112.285156 C 138.992188 112.105469 139.222656 111.582031 139.570312 111.558594 C 144.261719 111.222656 148.21875 107.902344 153.03125 108.3125 C 155.261719 108.503906 157.402344 109.28125 159.394531 110.273438 C 159.828125 110.488281 160.265625 110.703125 160.699219 110.929688 C 159.921875 110.074219 159.070312 109.265625 158.132812 108.601562 C 156.339844 107.332031 154.320312 106.46875 152.671875 104.984375 C 152.609375 104.929688 152.582031 104.867188 152.566406 104.804688 C 150.535156 103.757812 148.425781 103.050781 146.570312 101.628906 C 144.882812 100.335938 143.257812 98.753906 142.328125 96.808594 C 141.296875 94.664062 141.144531 92.222656 141.648438 89.914062 C 141.898438 88.769531 142.332031 87.699219 142.839844 86.644531 C 143.539062 85.175781 144.925781 83.378906 144.6875 81.667969 C 144.660156 81.460938 145.050781 81.566406 145.171875 81.601562 C 146.339844 81.945312 146.523438 83.367188 146.957031 84.332031 C 147.855469 86.320312 148.644531 88.457031 149.332031 90.53125 C 150.1875 93.121094 150.179688 95.734375 150.65625 98.390625 C 151.078125 100.746094 152.226562 103.085938 153.894531 104.804688 C 155.65625 106.617188 158.207031 107.441406 160.0625 109.179688 C 160.570312 109.648438 161.0625 110.148438 161.527344 110.667969 C 161.53125 110.621094 161.535156 110.574219 161.539062 110.527344 C 160.660156 108.421875 159.71875 106.328125 159.375 104.066406 C 158.867188 100.753906 159.746094 97.464844 160.765625 94.339844 C 160.902344 93.929688 161.539062 93.988281 161.53125 94.445312 C 161.503906 96.398438 162.71875 97.9375 163.402344 99.6875 C 163.949219 101.101562 164.226562 102.621094 164.035156 104.132812 Z M 164.035156 104.132812 " fill-opacity="1" fill-rule="nonzero"/></g><g fill="#cc5a5a" fill-opacity="1"><g transform="translate(112.575605, 259.37345)"><g><path d="M 7.53125 0.109375 C 6.28125 0.109375 5.148438 -0.164062 4.140625 -0.71875 C 3.140625 -1.269531 2.351562 -2.035156 1.78125 -3.015625 C 1.21875 -3.992188 0.9375 -5.085938 0.9375 -6.296875 C 0.9375 -7.515625 1.21875 -8.609375 1.78125 -9.578125 C 2.351562 -10.554688 3.144531 -11.320312 4.15625 -11.875 C 5.164062 -12.425781 6.296875 -12.703125 7.546875 -12.703125 C 8.484375 -12.703125 9.347656 -12.546875 10.140625 -12.234375 C 10.929688 -11.921875 11.601562 -11.46875 12.15625 -10.875 L 11.296875 -10.03125 C 10.316406 -11.019531 9.078125 -11.515625 7.578125 -11.515625 C 6.578125 -11.515625 5.671875 -11.285156 4.859375 -10.828125 C 4.046875 -10.378906 3.40625 -9.757812 2.9375 -8.96875 C 2.476562 -8.175781 2.25 -7.285156 2.25 -6.296875 C 2.25 -5.316406 2.476562 -4.429688 2.9375 -3.640625 C 3.40625 -2.847656 4.046875 -2.222656 4.859375 -1.765625 C 5.671875 -1.304688 6.578125 -1.078125 7.578125 -1.078125 C 9.085938 -1.078125 10.328125 -1.582031 11.296875 -2.59375 L 12.15625 -1.75 C 11.601562 -1.144531 10.925781 -0.679688 10.125 -0.359375 C 9.320312 -0.046875 8.457031 0.109375 7.53125 0.109375 Z M 7.53125 0.109375 "/></g></g></g><g fill="#cc5a5a" fill-opacity="1"><g transform="translate(125.517567, 259.37345)"><g><path d="M 9.953125 -3.359375 L 2.9375 -3.359375 L 1.421875 0 L 0.03125 0 L 5.796875 -12.59375 L 7.109375 -12.59375 L 12.875 0 L 11.46875 0 Z M 9.46875 -4.453125 L 6.4375 -11.21875 L 3.421875 -4.453125 Z M 9.46875 -4.453125 "/></g></g></g><g fill="#cc5a5a" fill-opacity="1"><g transform="translate(138.423527, 259.37345)"><g><path d="M 5.53125 0.109375 C 4.59375 0.109375 3.691406 -0.0390625 2.828125 -0.34375 C 1.972656 -0.644531 1.3125 -1.039062 0.84375 -1.53125 L 1.375 -2.5625 C 1.820312 -2.101562 2.421875 -1.734375 3.171875 -1.453125 C 3.929688 -1.171875 4.71875 -1.03125 5.53125 -1.03125 C 6.65625 -1.03125 7.5 -1.234375 8.0625 -1.640625 C 8.625 -2.054688 8.90625 -2.597656 8.90625 -3.265625 C 8.90625 -3.765625 8.75 -4.160156 8.4375 -4.453125 C 8.132812 -4.753906 7.757812 -4.988281 7.3125 -5.15625 C 6.875 -5.320312 6.257812 -5.5 5.46875 -5.6875 C 4.519531 -5.925781 3.765625 -6.15625 3.203125 -6.375 C 2.640625 -6.601562 2.15625 -6.941406 1.75 -7.390625 C 1.351562 -7.847656 1.15625 -8.46875 1.15625 -9.25 C 1.15625 -9.882812 1.320312 -10.460938 1.65625 -10.984375 C 1.988281 -11.503906 2.503906 -11.921875 3.203125 -12.234375 C 3.898438 -12.546875 4.765625 -12.703125 5.796875 -12.703125 C 6.515625 -12.703125 7.21875 -12.601562 7.90625 -12.40625 C 8.601562 -12.207031 9.203125 -11.9375 9.703125 -11.59375 L 9.25 -10.53125 C 8.71875 -10.875 8.148438 -11.132812 7.546875 -11.3125 C 6.953125 -11.488281 6.367188 -11.578125 5.796875 -11.578125 C 4.691406 -11.578125 3.859375 -11.363281 3.296875 -10.9375 C 2.742188 -10.507812 2.46875 -9.957031 2.46875 -9.28125 C 2.46875 -8.78125 2.617188 -8.375 2.921875 -8.0625 C 3.234375 -7.757812 3.617188 -7.523438 4.078125 -7.359375 C 4.535156 -7.203125 5.15625 -7.03125 5.9375 -6.84375 C 6.863281 -6.613281 7.609375 -6.382812 8.171875 -6.15625 C 8.742188 -5.9375 9.226562 -5.601562 9.625 -5.15625 C 10.019531 -4.707031 10.21875 -4.097656 10.21875 -3.328125 C 10.21875 -2.691406 10.046875 -2.113281 9.703125 -1.59375 C 9.367188 -1.070312 8.847656 -0.65625 8.140625 -0.34375 C 7.429688 -0.0390625 6.5625 0.109375 5.53125 0.109375 Z M 5.53125 0.109375 "/></g></g></g><g fill="#cc5a5a" fill-opacity="1"><g transform="translate(149.493499, 259.37345)"><g><path d="M 9.953125 -3.359375 L 2.9375 -3.359375 L 1.421875 0 L 0.03125 0 L 5.796875 -12.59375 L 7.109375 -12.59375 L 12.875 0 L 11.46875 0 Z M 9.46875 -4.453125 L 6.4375 -11.21875 L 3.421875 -4.453125 Z M 9.46875 -4.453125 "/></g></g></g><g fill="#cc5a5a" fill-opacity="1"><g transform="translate(162.399458, 259.37345)"><g/></g></g><g fill="#cc5a5a" fill-opacity="1"><g transform="translate(167.115442, 259.37345)"><g><path d="M 10.921875 -6.296875 L 12.203125 -6.296875 L 12.203125 -1.5 C 11.617188 -0.976562 10.921875 -0.578125 10.109375 -0.296875 C 9.304688 -0.0234375 8.460938 0.109375 7.578125 0.109375 C 6.316406 0.109375 5.179688 -0.164062 4.171875 -0.71875 C 3.160156 -1.269531 2.367188 -2.035156 1.796875 -3.015625 C 1.222656 -3.992188 0.9375 -5.085938 0.9375 -6.296875 C 0.9375 -7.515625 1.222656 -8.609375 1.796875 -9.578125 C 2.367188 -10.554688 3.160156 -11.320312 4.171875 -11.875 C 5.179688 -12.425781 6.320312 -12.703125 7.59375 -12.703125 C 8.550781 -12.703125 9.429688 -12.550781 10.234375 -12.25 C 11.046875 -11.945312 11.726562 -11.492188 12.28125 -10.890625 L 11.453125 -10.046875 C 10.453125 -11.023438 9.1875 -11.515625 7.65625 -11.515625 C 6.632812 -11.515625 5.710938 -11.289062 4.890625 -10.84375 C 4.066406 -10.394531 3.421875 -9.769531 2.953125 -8.96875 C 2.484375 -8.175781 2.25 -7.285156 2.25 -6.296875 C 2.25 -5.316406 2.484375 -4.429688 2.953125 -3.640625 C 3.421875 -2.847656 4.0625 -2.222656 4.875 -1.765625 C 5.695312 -1.304688 6.613281 -1.078125 7.625 -1.078125 C 8.925781 -1.078125 10.023438 -1.398438 10.921875 -2.046875 Z M 10.921875 -6.296875 "/></g></g></g><g fill="#cc5a5a" fill-opacity="1"><g transform="translate(181.029397, 259.37345)"><g><path d="M 2.046875 -12.59375 L 3.390625 -12.59375 L 3.390625 0 L 2.046875 0 Z M 2.046875 -12.59375 "/></g></g></g><g fill="#cc5a5a" fill-opacity="1"><g transform="translate(186.465386, 259.37345)"><g><path d="M 9.953125 -3.359375 L 2.9375 -3.359375 L 1.421875 0 L 0.03125 0 L 5.796875 -12.59375 L 7.109375 -12.59375 L 12.875 0 L 11.46875 0 Z M 9.46875 -4.453125 L 6.4375 -11.21875 L 3.421875 -4.453125 Z M 9.46875 -4.453125 "/></g></g></g><g fill="#cc5a5a" fill-opacity="1"><g transform="translate(199.371345, 259.37345)"><g><path d="M 10.65625 0 L 7.78125 -4.046875 C 7.457031 -4.015625 7.117188 -4 6.765625 -4 L 3.390625 -4 L 3.390625 0 L 2.046875 0 L 2.046875 -12.59375 L 6.765625 -12.59375 C 8.378906 -12.59375 9.640625 -12.207031 10.546875 -11.4375 C 11.460938 -10.675781 11.921875 -9.625 11.921875 -8.28125 C 11.921875 -7.289062 11.671875 -6.457031 11.171875 -5.78125 C 10.671875 -5.101562 9.957031 -4.613281 9.03125 -4.3125 L 12.109375 0 Z M 6.734375 -5.125 C 7.984375 -5.125 8.9375 -5.398438 9.59375 -5.953125 C 10.25 -6.503906 10.578125 -7.28125 10.578125 -8.28125 C 10.578125 -9.300781 10.25 -10.082031 9.59375 -10.625 C 8.9375 -11.175781 7.984375 -11.453125 6.734375 -11.453125 L 3.390625 -11.453125 L 3.390625 -5.125 Z M 6.734375 -5.125 "/></g></g></g><g fill="#cc5a5a" fill-opacity="1"><g transform="translate(212.385303, 259.37345)"><g><path d="M 2.046875 -12.59375 L 7.1875 -12.59375 C 8.519531 -12.59375 9.691406 -12.328125 10.703125 -11.796875 C 11.722656 -11.265625 12.515625 -10.519531 13.078125 -9.5625 C 13.648438 -8.613281 13.9375 -7.523438 13.9375 -6.296875 C 13.9375 -5.078125 13.648438 -3.988281 13.078125 -3.03125 C 12.515625 -2.082031 11.722656 -1.335938 10.703125 -0.796875 C 9.691406 -0.265625 8.519531 0 7.1875 0 L 2.046875 0 Z M 7.109375 -1.15625 C 8.210938 -1.15625 9.175781 -1.375 10 -1.8125 C 10.832031 -2.25 11.476562 -2.851562 11.9375 -3.625 C 12.394531 -4.394531 12.625 -5.285156 12.625 -6.296875 C 12.625 -7.304688 12.394531 -8.195312 11.9375 -8.96875 C 11.476562 -9.75 10.832031 -10.359375 10 -10.796875 C 9.175781 -11.234375 8.210938 -11.453125 7.109375 -11.453125 L 3.390625 -11.453125 L 3.390625 -1.15625 Z M 7.109375 -1.15625 "/></g></g></g><g fill="#cc5a5a" fill-opacity="1"><g transform="translate(227.25326, 259.37345)"><g><path d="M 2.046875 -12.59375 L 3.390625 -12.59375 L 3.390625 0 L 2.046875 0 Z M 2.046875 -12.59375 "/></g></g></g><g fill="#cc5a5a" fill-opacity="1"><g transform="translate(232.689249, 259.37345)"><g><path d="M 12.578125 -12.59375 L 12.578125 0 L 11.484375 0 L 3.390625 -10.21875 L 3.390625 0 L 2.046875 0 L 2.046875 -12.59375 L 3.15625 -12.59375 L 11.265625 -2.375 L 11.265625 -12.59375 Z M 12.578125 -12.59375 "/></g></g></g><g fill="#cc5a5a" fill-opacity="1"><g transform="translate(247.323209, 259.37345)"><g><path d="M 7.5625 0.109375 C 6.3125 0.109375 5.175781 -0.164062 4.15625 -0.71875 C 3.144531 -1.28125 2.351562 -2.046875 1.78125 -3.015625 C 1.21875 -3.992188 0.9375 -5.085938 0.9375 -6.296875 C 0.9375 -7.515625 1.21875 -8.609375 1.78125 -9.578125 C 2.351562 -10.546875 3.144531 -11.304688 4.15625 -11.859375 C 5.175781 -12.421875 6.3125 -12.703125 7.5625 -12.703125 C 8.8125 -12.703125 9.9375 -12.425781 10.9375 -11.875 C 11.9375 -11.320312 12.722656 -10.554688 13.296875 -9.578125 C 13.878906 -8.609375 14.171875 -7.515625 14.171875 -6.296875 C 14.171875 -5.085938 13.878906 -3.992188 13.296875 -3.015625 C 12.722656 -2.035156 11.9375 -1.269531 10.9375 -0.71875 C 9.9375 -0.164062 8.8125 0.109375 7.5625 0.109375 Z M 7.5625 -1.078125 C 8.550781 -1.078125 9.445312 -1.300781 10.25 -1.75 C 11.0625 -2.207031 11.691406 -2.832031 12.140625 -3.625 C 12.597656 -4.425781 12.828125 -5.316406 12.828125 -6.296875 C 12.828125 -7.285156 12.597656 -8.175781 12.140625 -8.96875 C 11.691406 -9.769531 11.0625 -10.394531 10.25 -10.84375 C 9.445312 -11.289062 8.550781 -11.515625 7.5625 -11.515625 C 6.5625 -11.515625 5.65625 -11.289062 4.84375 -10.84375 C 4.039062 -10.394531 3.40625 -9.769531 2.9375 -8.96875 C 2.476562 -8.175781 2.25 -7.285156 2.25 -6.296875 C 2.25 -5.316406 2.476562 -4.425781 2.9375 -3.625 C 3.40625 -2.832031 4.039062 -2.207031 4.84375 -1.75 C 5.65625 -1.300781 6.5625 -1.078125 7.5625 -1.078125 Z M 7.5625 -1.078125 "/></g></g></g></svg>