<svg xmlns="http://www.w3.org/2000/svg" width="512" height="512" enable-background="new 0 0 512 512" viewBox="0 0 512 512"><path fill="#C5E5FC" d="M127.096,272.34H402.99c10.232,0,20.448,1.651,29.942,5.379c2.985,1.171,6.042,2.588,9.009,4.301
	c16.65,9.61,22.753,30.046,14.721,47.223c-4.502,9.628-12.016,21.946-24.131,33.065c-12.938,11.874-23.912,25.794-30.6,41.853
	c-9.17,22.018-33.061,51.455-95.295,57.257c0,0-85.421,8.702-135.622-41.138c0,0-26.321-32.437-62.215-30.854
	c0,0-7.409-0.311-17.188-2.533c-29.908-6.801-46.879-36.87-36.934-64.453l0.489-1.355C65.68,291.931,94.589,272.34,127.096,272.34z"/><path fill="#FACFA8" d="M441.941,282.02c-2.967-1.713-6.023-3.13-9.009-4.302c-9.494-3.727-19.71-5.378-29.942-5.378H127.096
	c-32.507,0-61.416,19.591-71.928,48.743l-0.489,1.356c-1.664,4.613-2.511,9.293-2.733,13.926
	c10.821-7.771,38.646-24.063,81.95-24.063c56.837,0,129.239,0,129.239,0s36.299-2.729,57.252,26.766
	c5.018,7.063,11.711,12.893,19.899,15.721c6.026,2.08,13.731,3.465,23.067,2.676c7.008-0.593,14.098-0.275,20.809,1.825
	c10.097,3.161,23.305,9.707,30.254,23.044c5.309-7.225,11.442-13.902,18.115-20.025c12.115-11.12,19.629-23.438,24.131-33.066
	C464.694,312.065,458.592,291.63,441.941,282.02z"/><path fill="#92BEE2" d="M387.863,426.512c-2.118-13.417-11.34-21.563-20.644-26.428c-8.946-4.679-19.05-6.563-29.146-6.641
	c-34.23-0.264-47.058-20.13-47.058-20.13C278.138,354.146,256,351.699,256,351.699c-30.008-3.578-70.159-2.861-113.088,0
	c-28.209,1.881-53.253,17.938-67.163,28.752c4.736,2.895,10.046,5.117,15.864,6.441c9.779,2.223,17.187,2.533,17.187,2.533
	c35.895-1.582,62.215,30.854,62.215,30.854c50.2,49.84,135.622,41.138,135.622,41.138
	C348.996,457.469,373.582,442.568,387.863,426.512z"/><path fill="#FEAA3A" d="M68.887,185.596l114.225-85.837l92.882,90.739H70.523C67.907,190.498,66.795,187.168,68.887,185.596z"/><path fill="#F08824" d="M183.112,99.759l122.931,85.781c2.186,1.525,1.105,4.958-1.56,4.958h-48.425L183.112,99.759z"/><rect width="161.727" height="84.954" x="88.135" y="202.554" fill="#FEAA3A"/><rect width="37.128" height="84.954" x="249.861" y="202.554" fill="#DB731D"/><rect width="16.406" height="52.174" x="261.313" y="220.166" fill="#C14E4E"/><path fill="#F27070" d="M94.24 343.732L94.24 343.732c-3.372 0-6.105-2.733-6.105-6.105v-50.119h12.211v50.119C100.346 340.999 97.612 343.732 94.24 343.732zM243.755 343.732L243.755 343.732c-3.372 0-6.105-2.733-6.105-6.105v-50.119h12.211v50.119C249.861 340.999 247.128 343.732 243.755 343.732zM339.416 343.732L339.416 343.732c-3.371 0-6.105-2.733-6.105-6.105v-50.119h12.212v50.119C345.522 340.999 342.789 343.732 339.416 343.732z"/><path fill="#C14E4E" d="M158.103 331.316L158.103 331.316c-3.372 0-6.106-2.733-6.106-6.105v-37.703h12.211v37.703C164.208 328.583 161.475 331.316 158.103 331.316zM280.883 331.316L280.883 331.316c-3.371 0-6.105-2.733-6.105-6.105v-37.703h12.212v37.703C286.989 328.583 284.256 331.316 280.883 331.316zM376.707 331.316L376.707 331.316c-3.372 0-6.105-2.733-6.105-6.105v-37.703h12.211v37.703C382.813 328.583 380.079 331.316 376.707 331.316z"/><polygon fill="#F08824" points="249.861 279.145 249.861 202.554 88.135 202.554 88.135 203.786"/><rect width="21.365" height="47.004" x="136.738" y="220.166" fill="#F27070"/><rect width="21.365" height="47.004" x="187.29" y="220.166" fill="#F27070"/><polygon fill="#C14E4E" points="136.738 226.434 158.103 236.388 158.103 220.166 136.738 220.166"/><polygon fill="#C14E4E" points="187.29 249.988 208.654 259.943 208.654 220.166 187.29 220.166"/><path fill="#F27070" d="M429.063,134.499c3.133,0.193,5.109-3.35,3.252-5.879c-2.847-3.876-7.173-8.98-12.988-13.685
	c-16.119-13.042-38.734-13.815-56.073-3.192l32.501-56.151c1.572-2.716-0.714-6.067-3.807-5.536
	c-4.74,0.814-11.239,2.405-18.045,5.505c-21.012,9.571-32.064,33.14-26.858,55.634c0.171,0.739,0.423,1.527,0.626,2.287
	c-1.578-1.378-3.148-2.661-4.697-3.803c-18.578-13.709-44.598-12.923-61.725,2.561c-5.548,5.016-9.588,10.349-12.218,14.376
	c-1.716,2.628,0.452,6.057,3.569,5.692l64.439-7.535c-16.635,11.695-24.904,32.758-19.335,52.732
	c2.009,7.204,4.976,13.202,7.403,17.353c1.584,2.709,5.621,2.302,6.688-0.649l20.994-58.106c1.321-3.656,4.895-6.004,8.775-5.765
	L429.063,134.499z"/><path fill="#C14E4E" d="M409.702,263.507c3.439,0,6.201-2.945,5.862-6.368c-5.766-58.362-36.2-103.85-44.195-114.919
	c-1.563-2.163-4.371-3.128-7.066-2.281c-3.459,1.088-5.063,5.085-3.809,8.488c16.803,45.529,13.462,85.488,8.982,108.098
	c-0.719,3.63,2.068,6.982,5.77,6.982H409.702z"/><rect width="132.951" height="10.045" x="249.861" y="277.463" fill="#F27070"/><rect width="161.727" height="10.045" x="88.135" y="277.463" fill="#F27070"/></svg>