<svg xmlns="http://www.w3.org/2000/svg" width="30" height="30" viewBox="0 0 64 64"><g data-name="Layer 27"><rect width="2" height="5" x="23" y="42"/><path d="M25.4,48.5l-1.731,1A5.025,5.025,0,0,0,25.5,51.328l1-1.73A3.027,3.027,0,0,1,25.4,48.5Z"/><path d="M59,26H52V20h3a1,1,0,0,0,1-1V5a5.006,5.006,0,0,0-5-5H5A5.006,5.006,0,0,0,0,5V19a1,1,0,0,0,1,1H4V54H1a1,1,0,0,0-1,1v4a5.006,5.006,0,0,0,5,5H51a5.006,5.006,0,0,0,5-5V55a1,1,0,0,0-1-1H52V32h5a1,1,0,0,1,1,1v4a3,3,0,0,0,6,0V31A5.006,5.006,0,0,0,59,26Zm-9,0H49a1,1,0,0,1-1-1V20h2ZM2,5A3,3,0,0,1,5,2H51a3,3,0,0,1,3,3V18H2ZM32,28h2v3a1,1,0,0,1-2,0Zm3-2H20V20H36v6ZM22,28h2v3a1,1,0,0,1-2,0ZM54,59a3,3,0,0,1-3,3H5a3,3,0,0,1-3-3V56H54ZM21,47V40H35v7a7,7,0,0,1-14,0Zm19-7a1,1,0,0,1,1,1v2a1,1,0,0,1-1,1H37V40ZM50,54H33.644A8.983,8.983,0,0,0,37,47V46h3a3,3,0,0,0,3-3V41a3,3,0,0,0-3-3H20a1,1,0,0,0-1,1v8a8.983,8.983,0,0,0,3.356,7H6V20H18v7a1,1,0,0,0,1,1h1v3a3,3,0,0,0,6,0V28h4v3a3,3,0,0,0,6,0V28h1a1,1,0,0,0,1-1V20h4v7a5.006,5.006,0,0,0,5,5h3ZM62,37a1,1,0,0,1-2,0V33a3,3,0,0,0-3-3H47a3,3,0,0,1-3-3V20h2v5a3,3,0,0,0,3,3H59a3,3,0,0,1,3,3Z"/><path d="M28,16a6,6,0,1,0-6-6A6.006,6.006,0,0,0,28,16ZM28,6a4,4,0,1,1-4,4A4,4,0,0,1,28,6Z"/><rect width="5.657" height="2" x="25.172" y="9" transform="rotate(-45 28 10)"/><path d="M39 9h8a1 1 0 0 0 1-1V5a1 1 0 0 0-1-1H39a1 1 0 0 0-1 1V8A1 1 0 0 0 39 9zm1-3h6V7H40zM39 16h8a1 1 0 0 0 1-1V12a1 1 0 0 0-1-1H39a1 1 0 0 0-1 1v3A1 1 0 0 0 39 16zm1-3h6v1H40zM9 9h8a1 1 0 0 0 1-1V5a1 1 0 0 0-1-1H9A1 1 0 0 0 8 5V8A1 1 0 0 0 9 9zm1-3h6V7H10zM9 16h8a1 1 0 0 0 1-1V12a1 1 0 0 0-1-1H9a1 1 0 0 0-1 1v3A1 1 0 0 0 9 16zm1-3h6v1H10z"/></g></svg>