<svg xmlns="http://www.w3.org/2000/svg"  width="30" height="30" enable-background="new 0 0 128 128" viewBox="0 0 128 128"><path d="M102.2 66.4c0-9.5-5.3-18.2-13.5-22.5.9-2.6 1.4-5.3 1.4-8C90 23 79.6 12.5 66.8 12.5c-12.6 0-22.9 10.1-23.2 22.7-10.7 4.6-17.8 15.2-17.8 27.1 0 16.3 13.1 29.5 29.3 29.5h21.8C90.9 91.9 102.2 80.5 102.2 66.4zM69.9 85.9H55.1c-12.8 0-23.3-10.5-23.3-23.5 0-10.1 6.4-19 15.8-22.2 1.3-.4 2.1-1.7 2-3 0-.4 0-.8 0-1.2 0-9.6 7.7-17.4 17.2-17.4S77 26.3 77 35.9c0 2.9-.7 5.6-2 8.2-.4.8-.5 1.7-.2 2.5.3.8.9 1.4 1.8 1.7 7.5 2.8 12.5 10.1 12.5 18.2C89.2 77.2 80.6 85.9 69.9 85.9zM67 112.5V97c0-1.7-1.3-3-3-3s-3 1.3-3 3v15.5c0 1.7 1.3 3 3 3S67 114.2 67 112.5z"/><path d="M78.8,66l-11.8,6V44c0-1.7-1.3-3-3-3s-3,1.3-3,3v13.6l-11.8-6c-1.5-0.7-3.3-0.2-4,1.3c-0.7,1.5-0.2,3.3,1.3,4L61,64.4v16.1   c0,1.7,1.3,3,3,3s3-1.3,3-3v-1.8l14.5-7.3c1.5-0.7,2.1-2.5,1.3-4S80.3,65.2,78.8,66z"/></svg>