<svg xmlns="http://www.w3.org/2000/svg" width="30" height="30" viewBox="0 0 128 128"><path d="M96.1 47.6c-.4 2.8-.8 5.5-1.2 7.9.7 2.7 1.1 5.5 1.1 8.5 0 4.8-1.1 9.4-3 13.5l.3 7.4c4.2-5.9 6.7-13.1 6.7-21 0-5.8-1.4-11.4-3.9-16.3zM62.6 96l.1 4H64c2.2 0 4.3-.2 6.4-.6l.1-4.1c-2.1.5-4.3.7-6.5.7h-1.4zM34.1 52.6c-1.1-1.3-1.9-2.7-2.6-4.2-2.2 4.8-3.5 10-3.5 15.6 0 10.5 4.5 19.9 11.6 26.5l.2-5.6C34.9 79.3 32 72 32 64c0-4 .7-7.8 2.1-11.4z"/><path d="M13 64c0-15.1 6.6-28.6 17-38v-5.2C17.2 30.8 9 46.5 9 64c0 21.4 12.2 39.9 30 49l.1-4.5C23.5 99.7 13 83.1 13 64zM63.1 115l.1 2.9v1.1h.8c2.1 0 4.1-.1 6.1-.3l.1-4c-2 .2-4.1.4-6.2.4-.3-.1-.6-.1-.9-.1zM95.4 18.9c.4 1.9.8 3.9 1 5.8C107.8 34 115 48.2 115 64c0 16.9-8.3 31.9-21 41.2l.2 4.8c14.9-9.8 24.8-26.7 24.8-46 0-18.7-9.3-35.2-23.6-45.1zM46 39c1.1 0 2-.9 2-2V2c0-1.1-.9-2-2-2s-2 .9-2 2v35c0 1.1.9 2 2 2zM56 39c1.1 0 2-.9 2-2V2c0-1.1-.9-2-2-2s-2 .9-2 2v35c0 1.1.9 2 2 2z"/><path d="M61.1 53.7c3.8-3 6.9-7 6.9-12V2c0-1.1-.9-2-2-2s-2 .9-2 2v39.7c0 3.8-2.6 6.7-5.4 8.9-2.3 1.8-5.1 4.1-5.1 8.1l.6 21.3h-6.2l.6-21.4c0-3.9-2.8-6.2-5.1-8-2.8-2.2-5.4-5.1-5.4-8.9V2c0-1.1-.9-2-2-2s-2 .9-2 2v39.7c0 5 3.1 9.1 6.9 12 2.2 1.8 3.6 3 3.6 4.8 0 0-1.7 60.4-1.7 60.9-.2 3.7-.3 8.2 4.4 8.5H54.9c4.7-.3 4.5-4.9 4.4-8.5 0-.5-1.7-60.9-1.7-60.9-.1-1.8 1.3-3 3.5-4.8zM54.6 124h-7.2c-.5-.1-.8-.4-.6-4.4 0-.5 1-35.6 1-35.6h6.5s1 35.1 1 35.6c.1 4-.1 4.3-.7 4.4zM90 59.7c2.7-14.5 7.6-41.5-7.8-58.2C81.1.3 80.1 0 79.3 0 77.7 0 76 1.3 76 4.2L74 124c0 2.7 1.6 4 4.7 4H86c.9 0 2 0 2.9-.6.8-.5 1.8-1.4 1.8-3.5l-2-53.2c0-2 .3-5.3.7-7.6.2-1 .4-2.2.6-3.4zM78 124l.7-40h6.5l1.5 40H78zm8.1-65c-.2 1.3-.4 2.4-.6 3.5-.4 2.1-.8 5.8-.8 8.3L85 80h-6.3L80 4.9c13.2 15.4 8.8 39.5 6.1 54.1z"/></svg>