<svg xmlns="http://www.w3.org/2000/svg" width="30" height="30" viewBox="0 0 64 64"><path d="M61,22H56.117l.877-7.89A1,1,0,0,0,56,13H49a1,1,0,0,0-.994,1.11L48.883,22H44V12a2.017,2.017,0,0,0-2-2V4a1,1,0,0,0-1-1H37a1,1,0,0,0-1,1v6a2,2,0,0,0-2,2V22H25.816A2.966,2.966,0,0,0,26,21V18a1,1,0,0,0-1-1h-.142A4,4,0,0,0,21,14c-.047,0-.091.012-.138.014a3.981,3.981,0,0,0-7.724,0c-.047,0-.091-.014-.138-.014a4,4,0,0,0-3.858,3H9a1,1,0,0,0-1,1v3a2.966,2.966,0,0,0,.184,1H3a1,1,0,0,0-1,1V33a1,1,0,0,0,1,1,6.126,6.126,0,0,0,1-.09V60a1,1,0,0,0,1,1H9a1,1,0,0,0,1-1V48H54V60a1,1,0,0,0,1,1h4a1,1,0,0,0,1-1V34a6.173,6.173,0,0,0,.717-.041A1.014,1.014,0,0,0,61,34a1,1,0,0,0,1-1V23A1,1,0,0,0,61,22Zm-6.117-7-.111,1H50.228l-.111-1Zm-4.432,3h4.1L54.1,22H50.9ZM40,5V6H38V5Zm-2,5V8h2v2a2,2,0,0,0,2,2v1H36V12A2,2,0,0,0,38,10Zm-2,5h6v7H36ZM22.722,17H19.278a1.983,1.983,0,0,1,3.444,0ZM17,13a2,2,0,0,1,1.954,1.581A3.994,3.994,0,0,0,17.142,17h-.284a3.994,3.994,0,0,0-1.812-2.419A2,2,0,0,1,17,13Zm-4,3a1.993,1.993,0,0,1,1.722,1H11.278A1.993,1.993,0,0,1,13,16Zm-3,5V19H24v2a1,1,0,0,1-1,1H11A1,1,0,0,1,10,21ZM8,59H6V33.2a5.949,5.949,0,0,0,1.5-1.227,6.061,6.061,0,0,0,.5.5ZM54,40H10V33.658a6,6,0,0,0,6-1.189,5.991,5.991,0,0,0,8,0,5.991,5.991,0,0,0,8,0,5.991,5.991,0,0,0,8,0,5.991,5.991,0,0,0,8,0A6.036,6.036,0,0,0,52,34a5.965,5.965,0,0,0,2-.359ZM10,46V42H54v4ZM58,59H56V32.469a6.051,6.051,0,0,0,2,1.172Zm2-27a4.028,4.028,0,0,1-3.2-1.6,1,1,0,0,0-1.6,0,4,4,0,0,1-6.4,0,1.036,1.036,0,0,0-1.6,0,4,4,0,0,1-6.4,0,1.036,1.036,0,0,0-1.6,0,4,4,0,0,1-6.4,0,1.036,1.036,0,0,0-1.6,0,4,4,0,0,1-6.4,0,1.036,1.036,0,0,0-1.6,0,4,4,0,0,1-6.4,0,1.036,1.036,0,0,0-1.6,0A4.028,4.028,0,0,1,12,32a3.973,3.973,0,0,1-3.6-2.257,1.04,1.04,0,0,0-1.8,0A3.975,3.975,0,0,1,4,31.876V24H60Z"/></svg>