<svg xmlns="http://www.w3.org/2000/svg" width="30" height="30" viewBox="0 0 66 66"><path fill="#010101" d="M17.3 36c0 .6.4 1 1 1s1-.4 1-1v-7.3l3.8-3.8 5.7-1.3c.5-.1.9-.7.7-1.2-.1-.5-.7-.9-1.2-.7l-4.6 1.1.7-4 5.1-2.2c.5-.2.7-.8.5-1.3-.2-.5-.8-.7-1.3-.5l-4.7 2-2-4.7c-.2-.5-.8-.7-1.3-.5-.5.2-.7.8-.5 1.3l2.3 5.4-.9 5.5-3.4 3.4-3.2-3.6-.2-5.4 3.3-4.9c.3-.5.2-1.1-.3-1.4-.5-.3-1.1-.2-1.4.3l-2.9 4.2-4.2-2.9c-.5-.3-1.1-.2-1.4.3-.3.5-.2 1.1.3 1.4l4.6 3.2.2 4.4-4.8-1.1c-.5-.1-1.1.2-1.2.8-.1.5.2 1.1.8 1.2l5.7 1.3 3.9 3.9V36zM52.4 22c4.6 0 8.4-3.8 8.4-8.4S57 5.2 52.4 5.2C47.8 5.2 44 9 44 13.6s3.8 8.4 8.4 8.4zm0-14.8c3.5 0 6.4 2.9 6.4 6.4S55.9 20 52.4 20 46 17.1 46 13.6s2.9-6.4 6.4-6.4zM52.4 3.6c.6 0 1-.4 1-1V1c0-.6-.4-1-1-1s-1 .4-1 1v1.6c0 .6.5 1 1 1zM51.4 24.5v1.6c0 .6.4 1 1 1s1-.4 1-1v-1.6c0-.6-.4-1-1-1-.5 0-1 .5-1 1zM63.4 14.6H65c.6 0 1-.4 1-1s-.4-1-1-1h-1.6c-.6 0-1 .4-1 1 0 .5.4 1 1 1zM39.8 14.6h1.6c.6 0 1-.4 1-1s-.4-1-1-1h-1.6c-.6 0-1 .4-1 1 0 .5.5 1 1 1zM60.9 6.5L62 5.4c.4-.4.4-1 0-1.4-.4-.4-1-.4-1.4 0l-1.1 1.1c-.4.4-.4 1 0 1.4.3.4 1 .4 1.4 0zM44.2 23.2l1.1-1.1c.4-.4.4-1 0-1.4-.4-.4-1-.4-1.4 0l-1.1 1.1c-.4.4-.4 1 0 1.4.4.4 1 .4 1.4 0zM60.9 20.6c-.4-.4-1-.4-1.4 0-.4.4-.4 1 0 1.4l1.1 1.1c.4.4 1 .4 1.4 0 .4-.4.4-1 0-1.4l-1.1-1.1zM43.9 6.5c.4.4 1 .4 1.4 0 .4-.4.4-1 0-1.4L44.2 4c-.4-.4-1-.4-1.4 0-.4.4-.4 1 0 1.4l1.1 1.1z"/><path fill="#010101" d="M65 59.6h-1.3V45.2c0-.2 0-.3-.1-.5l-3.2-6c-.3-.7-1.4-.7-1.8 0l-3.2 6c-.1.1-.1.3-.1.5V47h-4.9v-1.8c0-.2 0-.3-.1-.5l-3.2-6c-.2-.3-.5-.5-.9-.5s-.7.2-.9.5l-3.2 6c-.1.1-.1.3-.1.5V47h-4.9v-1.8c0-.2 0-.3-.1-.5l-3.2-6c-.3-.7-1.4-.7-1.8 0l-3.2 6c-.1.1-.1.3-.1.5V47h-4.9v-1.8c0-.2 0-.3-.1-.5v-8.1c.7.3 1.5.4 2.3.4.8 0 1.7-.2 2.5-.5 2-.8 3.3-2.5 3.8-4.5 1.7-.5 3.1-1.7 4-3.3.8-1.6.9-3.5.3-5.2 1.3-1.6 1.7-3.7 1.2-5.8-.5-2-1.9-3.5-3.8-4.3.1-2.4-1.1-4.8-3.3-6-.3-1.8-1.4-3.4-3.1-4.4-1.6-1-3.5-1.2-5.2-.6C20.9.5 18.5-.3 16.1.1c-2.4.5-4.2 2.2-4.9 4.4-1.5.1-3 .7-4.1 1.8-1.3 1.3-2 2.9-1.9 4.8-1.6.8-2.9 2.2-3.4 4-.5 1.7-.3 3.5.6 5C.6 21.6-.2 23.9.2 26.3c.5 2.5 2.3 4.4 4.8 5 .7 1.7 2.1 3 4 3.6 1.4.4 2.8.4 4.1-.1V47h-2.3v-1.8c0-.2 0-.3-.1-.5l-3.2-6c-.2-.3-.5-.5-.9-.5s-.7.2-.9.5l-3.2 6c-.1.1-.1.3-.1.5v14.4H1c-.6 0-1 .4-1 1V65c0 .6.4 1 1 1h64c.6 0 1-.4 1-1v-4.4c0-.6-.4-1-1-1zm-7.7-14.2l2.2-4.1 2.2 4.1v14.2h-4.3V45.4zm-6.9 14.2v-3.7h4.9v3.7h-4.9zM55.3 49v4.8h-4.9V49h4.9zm-11.2-3.6l2.2-4.1 2.2 4.1v14.2h-4.3V45.4zm-6.9 14.2v-3.7h4.9v3.7h-4.9zM42.1 49v4.8h-4.9V49h4.9zm-11.3-3.6l2.2-4.1 2.2 4.1v14.2h-4.3V45.4zm-6.9 14.2v-3.7h4.9v3.7h-4.9zm-13.2 0v-3.7h4.9v3.7h-4.9zm11.2-14.2v14.2h-4.3V45.4l2.2-4.1 2.1 4.1zm6.9 3.6v4.8h-4.9V49h4.9zM15 33.1v-.2c0-.1-.1-.1-.1-.2v-.1h-.1c0-.1-.1-.1-.2-.1l-.1-.1c-.1 0-.1 0-.2-.1h-.2-.1H13.7c-.1 0-.1.1-.2.1h-.1c-1.1.8-2.6 1.1-3.9.6-1.4-.4-2.4-1.5-2.9-2.8-.1-.4-.4-.6-.8-.7-2.3-.3-3.4-2.1-3.7-3.6-.3-1.5.1-3.5 2.1-4.7.3-.1.4-.4.5-.7.1-.3 0-.6-.2-.8-.9-1.2-1.2-2.6-.8-4 .4-1.4 1.4-2.5 2.8-3 .4-.2.7-.6.7-1.1-.2-1.4.2-2.8 1.3-3.8.9-.9 2.3-1.4 3.4-1.2.5.1 1-.3 1.1-.8.4-2.2 2.1-3.4 3.5-3.7 1.5-.3 3.5.1 4.7 2 .3.4.8.6 1.3.4 1.3-.6 2.8-.6 4.1.2 1.3.7 2.1 2.1 2.2 3.5 0 .4.3.7.6.8 1.9.9 3 2.9 2.6 4.9-.1.5.2 1 .7 1.2 1.6.4 2.8 1.6 3.2 3.1.4 1.6 0 3.2-1.1 4.3-.3.3-.4.8-.2 1.2.6 1.3.7 2.7 0 4-.6 1.3-1.8 2.2-3.2 2.4-.4.1-.8.4-.8.9-.2 1.6-1.2 3-2.7 3.6-1.5.6-3.1.4-4.4-.6 0 0-.1 0-.1-.1-.1 0-.1-.1-.2-.1H23h-.1H22.6c-.1 0-.1 0-.2.1-.1 0-.1.1-.1.1-.1 0-.1.1-.2.1 0 0 0 .1-.1.1 0 .1-.1.1-.1.2v6.3l-1.2-2.2c-.3-.7-1.4-.7-1.8 0l-3.2 6c-.1.1-.1.3-.1.5v2H15V33.2v-.1zm.6 15.9v4.8h-4.9V49h4.9zM4.3 45.4l2.2-4.1 2.2 4.1v14.2H4.3V45.4zM64 64H2v-2.4h62V64z"/></svg>