<svg xmlns="http://www.w3.org/2000/svg" width="30" height="30" enable-background="new 0 0 32 32" viewBox="0 0 32 32"><path fill="#231f20" d="M26.7,6.4L13.2,3.6c0,0,0,0,0,0c-0.6-0.2-1.3-0.3-1.9-0.3c-3.5,0-6.3,2.8-6.3,6.3c0,1.4,0.5,2.8,1.4,3.9v11.8
		c0,0.3,0.2,0.5,0.5,0.5H9V26c0,1.5,1.2,2.7,2.7,2.7h11.3c1.5,0,2.7-1.2,2.7-2.7v-0.7c0-0.3-0.2-0.5-0.5-0.5s-0.5,0.2-0.5,0.5V26
		c0,1-0.8,1.7-1.7,1.7H11.7c-1,0-1.7-0.8-1.7-1.7v-0.2h3c0.1,0,0.3-0.1,0.4-0.2c0.1-0.1,0.1-0.2,0.1-0.4l-0.5-3.5c0,0,0,0,0,0
		c0,0,0-0.1,0-0.1l-0.4-2.9h2.1c0.2,0,0.4-0.1,0.5-0.2c0.1-0.1,0.2-0.3,0.1-0.5l-0.6-2.6l12.1-2.5c0.2,0,0.4-0.2,0.4-0.5V6.9
		C27.1,6.7,26.9,6.5,26.7,6.4z M9.5,24.8C9.5,24.8,9.5,24.8,9.5,24.8C9.5,24.8,9.5,24.8,9.5,24.8H7.2V14.5c1.1,0.9,2.4,1.4,3.9,1.4
		l1.3,8.9H9.5z M14.2,17.8h-1.8l-0.3-1.9c0.4,0,0.7-0.1,1.1-0.2c0,0,0,0,0,0c0,0,0,0,0,0l0.5-0.1L14.2,17.8z M26.1,12l-12.4,2.6
		L13,14.7c0,0,0,0-0.1,0c0,0,0,0,0,0c-0.4,0.1-0.8,0.2-1.2,0.2c0,0,0,0-0.1,0c0,0,0,0-0.1,0c0,0,0,0,0,0c0,0,0,0,0,0l-0.2,0
		c-1.6,0-3-0.7-4-1.9c-0.8-1-1.3-2.2-1.3-3.5c0-2.9,2.4-5.3,5.4-5.3c0.6,0,1.1,0.1,1.7,0.3c0,0,0,0,0.1,0c0,0,0,0,0,0l13.1,2.7V12z"/><path fill="#231f20" d="M8.1,9.6c0,1.7,1.4,3.1,3.1,3.1s3.1-1.4,3.1-3.1S13,6.5,11.2,6.5S8.1,7.9,8.1,9.6z M13.4,9.6
		c0,1.2-1,2.2-2.2,2.2S9,10.8,9,9.6c0-1.2,1-2.2,2.2-2.2S13.4,8.4,13.4,9.6z"/></svg>