<svg xmlns="http://www.w3.org/2000/svg" width="30" height="30" data-name="Layer 1" viewBox="0 0 128 128"><circle cx="39" cy="17.001" r="2"/><circle cx="53" cy="17.001" r="2"/><circle cx="39" cy="110.999" r="2"/><circle cx="53" cy="110.999" r="2"/><path d="M46,73a8.914,8.914,0,0,0-5.5,16v12a2,2,0,0,0,2,2h7a2,2,0,0,0,2-2V89A8.914,8.914,0,0,0,46,73Zm2.5,13.2a2,2,0,0,0-1,1.735V99h-3V87.931a2,2,0,0,0-1-1.735,5,5,0,1,1,5.01,0Z"/><path d="M61,115.912l-8.583,6.725a15.74,15.74,0,0,1-12.834,0L31,115.912V12.088l8.583-6.725a15.741,15.741,0,0,1,12.834,0L61,12.088V35h4V11.115a2,2,0,0,0-.767-1.574L54.7,2.07a1.983,1.983,0,0,0-.384-.236,19.773,19.773,0,0,0-16.633,0,1.983,1.983,0,0,0-.384.236L27.767,9.54A2,2,0,0,0,27,11.115V116.885a2,2,0,0,0,.767,1.574l9.533,7.47a1.983,1.983,0,0,0,.384.236,19.773,19.773,0,0,0,16.633,0,1.983,1.983,0,0,0,.384-.236l9.533-7.47A2,2,0,0,0,65,116.885V55H61Z"/><path d="M95,39H57.519a13,13,0,1,0,0,12H95a6,6,0,1,0,0-12ZM46,54a9,9,0,1,1,6.688-15H47a6,6,0,1,0,0,12h5.688A8.956,8.956,0,0,1,46,54Zm49-7H47a2,2,0,1,1,0-4H95a2,2,0,1,1,0,4Z"/></svg>