<svg xmlns="http://www.w3.org/2000/svg" width="35" height="35" viewBox="0 0 750 750"><path fill="#0a3960" d="M596.36,494.22,399.45,327.89a38,38,0,0,0-12.75-7c1.92-19.71,9.95-37.3,22.74-49.22a50.51,50.51,0,1,0-84.95-36.95,11.23,11.23,0,0,0,22.45,0,28.08,28.08,0,1,1,47.19,20.53c-17.21,16-27.81,39.5-29.91,65.4a37.67,37.67,0,0,0-13.67,7.28L153.64,494.22c-13.21,11.17-17.83,29.09-11.76,45.67,5.76,15.75,20,25.93,36.22,25.93H571.9c16.24,0,30.46-10.18,36.22-25.93C614.19,523.31,609.57,505.39,596.36,494.22ZM587,532.17c-1,2.62-4.89,11.2-15.14,11.2H178.1c-10.25,0-14.18-8.58-15.14-11.2-2.22-6.06-2-14.71,5.18-20.8L365,345A15.19,15.19,0,0,1,385,345l196.9,166.33C589.07,517.46,589.26,526.11,587,532.17Z"/></svg>