<svg xmlns="http://www.w3.org/2000/svg" width="40" height="40" enable-background="new 0 0 2000 2000" viewBox="0 0 2000 2000"><path d="M624.5537 583.01c-13.8076 0-25 11.1929-25 25v127.123c0 13.8071 11.1924 25 25 25s25-11.1929 25-25V608.01C649.5537 594.2029 638.3613 583.01 624.5537 583.01zM624.5537 1216.0034c-13.8076 0-25 11.1929-25 25v127.123c0 13.8071 11.1924 25 25 25s25-11.1929 25-25v-127.123C649.5537 1227.1963 638.3613 1216.0034 624.5537 1216.0034z"/><path d="M1760.6699,1028.6172h-582.5918H786.7402V902.1436V633.01H904.876v51.9216
		c-54.5117,11.5427-95.5459,60.0322-95.5459,117.9314c0,13.8071,11.1934,25,25,25h191.0908c0.0078,0.0005,0.0156,0.0002,0.0195,0
		c13.8076,0,25-11.1929,25-25c0-0.3801-0.0078-0.7578-0.0244-1.1338c-0.5303-57.3989-41.3838-105.3301-95.54-116.7971V633.01
		h129.9463c4.6328,0,9.0752-0.8308,13.1875-2.3486c4.1113,1.5178,8.5527,2.3486,13.1855,2.3486h309.8975
		c4.5801,0,8.9736-0.812,13.0459-2.2971c4.0273,1.4851,8.3711,2.2971,12.8994,2.2971h124.9004v51.9216
		c-54.5117,11.5427-95.5459,60.0322-95.5459,117.9314c0,13.8071,11.1934,25,25,25h191.0908c13.8066,0,25-11.1929,25-25
		c0-57.8992-41.0332-106.3887-95.5449-117.9314V633.01h124.9004c20.8184,0,37.7559-17.1306,37.7559-38.1868V444.187
		c0-21.0564-16.9375-38.187-37.7559-38.187h-299.8008c-4.5283,0-8.8721,0.812-12.8994,2.2971
		c-4.0723-1.4851-8.4658-2.2971-13.0459-2.2971h-309.8975c-4.6328,0-9.0742,0.8308-13.1855,2.3486
		c-4.1123-1.5178-8.5547-2.3486-13.1875-2.3486H774.9277c-4.1387,0-8.1211,0.6704-11.8555,1.8933
		c-3.5566-1.2209-7.3662-1.8933-11.332-1.8933H249.3291c-19.2988,0-35,15.7009-35,35v461.1436V1559c0,19.2988,15.7012,35,35,35
		h502.4111c1.8477,0,3.6621-0.1465,5.4326-0.4238c1.4814,0.2734,3.0068,0.4238,4.5674,0.4238h416.3379h582.5918
		c13.8076,0,25-11.1929,25-25v-515.3828C1785.6699,1039.8101,1774.4775,1028.6172,1760.6699,1028.6172z M995.8457,777.863H863.9053
		c10.1123-26.5957,35.8701-45.5457,65.9707-45.5457C959.9756,732.3174,985.7334,751.2673,995.8457,777.863z M1662.9082,777.863
		h-131.9404c10.1123-26.5957,35.8701-45.5457,65.9707-45.5457C1627.0381,732.3174,1652.7959,751.2673,1662.9082,777.863z
		 M1203.0781,1078.6196h531.5166v109.9927h-531.5166V1078.6196z M1153.0781,1078.6172v134.9951v65.9526H786.7402v-200.9478
		H1153.0781z M1734.5947,583.01h-275.3145V456h275.3145V583.01z M1409.2803,583.01h-286.2695V456h286.2695V583.01z
		 M1073.0107,583.01H786.7402V456h286.2705V583.01z M264.3291,456h472.4111v138.8232v292.3203H264.3291V456z M264.3291,937.1436
		h472.4111v116.4736v250.9478V1544H264.3291V937.1436z M786.7402,1544v-214.4351h366.3379V1544H786.7402z M1203.0781,1544v-239.4351
		v-65.9526h532.5918V1544H1203.0781z"/><path d="M1622.8926,1268.793h-308.1152c-13.8066,0-25,11.1929-25,25v195.6992c0,13.8071,11.1934,25,25,25h308.1152
		c13.8066,0,25-11.1929,25-25V1293.793C1647.8926,1279.9858,1636.6992,1268.793,1622.8926,1268.793z M1597.8926,1464.4922h-258.1152
		V1318.793h258.1152V1464.4922z"/><circle cx="969.909" cy="1139.642" r="32.657"/><circle cx="929.876" cy="519.505" r="22.458"/><circle cx="1266.145" cy="519.505" r="22.458"/><circle cx="1596.938" cy="519.505" r="22.458"/><circle cx="969.909" cy="1391.643" r="32.657"/><circle cx="1290.225" cy="1133.616" r="32.657"/><circle cx="1379.531" cy="1133.616" r="32.657"/><circle cx="1468.838" cy="1133.616" r="32.657"/><circle cx="1558.145" cy="1133.616" r="32.657"/><circle cx="1647.45" cy="1133.616" r="32.657"/></svg>