<svg xmlns="http://www.w3.org/2000/svg"  width="30" height="30" enable-background="new 0 0 32 32" viewBox="0 0 32 32"><path fill="#231f20" d="M19.5,10.1c0,0,0-0.1,0-0.2V6.2c0-0.3-0.2-0.5-0.5-0.5h-2.6V3.4h2l2.9,1.4c0.1,0,0.1,0,0.2,0
		c0.2,0,0.3-0.1,0.4-0.3c0.1-0.2,0-0.5-0.2-0.6l-3-1.4c-0.1,0-0.1,0-0.2,0H13c-0.3,0-0.5,0.2-0.5,0.5s0.2,0.5,0.5,0.5h2.6v2.3H13
		c-0.3,0-0.5,0.2-0.5,0.5v3.8c0,0.1,0,0.1,0,0.1c-2,1.2-3.3,3.4-3.3,5.8v13.1c0,0.3,0.2,0.5,0.5,0.5h12.7c0.3,0,0.5-0.2,0.5-0.5
		V15.9C22.8,13.5,21.5,11.3,19.5,10.1z M13.8,9.5h-0.3V6.6h5.2v2.8h-0.3c0,0,0,0-0.1,0c-0.7-0.2-1.4-0.4-2.2-0.4
		C15.2,9.1,14.5,9.3,13.8,9.5C13.8,9.5,13.8,9.5,13.8,9.5z M16,10.1c3.2,0,5.9,2.6,5.9,5.9v2.3c-1.6-0.9-4.2-1.5-6.2,0.5
		c-2.2,2.2-4.9,0.6-5.6,0.1v-2.9C10.1,12.7,12.7,10.1,16,10.1z M10.1,28.6v-8.6c0.8,0.5,1.9,0.8,3,0.8c1.1,0,2.2-0.4,3.2-1.4
		c2.2-2.2,4.9-0.6,5.6-0.1v9.3H10.1z"/><path fill="#231f20" d="M14.3 23.6c0-.7-.6-1.4-1.4-1.4-.7 0-1.4.6-1.4 1.4 0 .7.6 1.4 1.4 1.4C13.7 24.9 14.3 24.3 14.3 23.6zM13 24c-.2 0-.4-.2-.4-.4 0-.2.2-.4.4-.4.2 0 .4.2.4.4C13.4 23.8 13.2 24 13 24zM15.1 24.9c-.7 0-1.4.6-1.4 1.4 0 .7.6 1.4 1.4 1.4.7 0 1.4-.6 1.4-1.4C16.5 25.5 15.9 24.9 15.1 24.9zM15.1 26.6c-.2 0-.4-.2-.4-.4 0-.2.2-.4.4-.4s.4.2.4.4C15.5 26.4 15.3 26.6 15.1 26.6zM19.6 21.9c0-.9-.7-1.6-1.6-1.6-.9 0-1.6.7-1.6 1.6 0 .9.7 1.6 1.6 1.6C18.9 23.5 19.6 22.8 19.6 21.9zM17.4 21.9c0-.4.3-.7.7-.7.4 0 .7.3.7.7 0 .4-.3.7-.7.7C17.7 22.6 17.4 22.3 17.4 21.9zM19.5 23.7c-.9 0-1.6.7-1.6 1.6s.7 1.6 1.6 1.6c.9 0 1.6-.7 1.6-1.6S20.4 23.7 19.5 23.7zM19.5 26c-.4 0-.7-.3-.7-.7 0-.4.3-.7.7-.7.4 0 .7.3.7.7C20.2 25.7 19.9 26 19.5 26z"/></svg>