<svg xmlns="http://www.w3.org/2000/svg" width="30" height="30" viewBox="0 0 512 512"><g data-name="​​OUTLINE"><polygon points="256 201.615 275.563 214.656 284.438 201.344 256 182.385 227.563 201.344 236.438 214.656 256 201.615"/><path d="M496,304V288h-8V264H472v24H424V264H408v24H392a24.02718,24.02718,0,0,1-24-24V233.88867l10.7334-21.46631L320,183.05566V168a64.08941,64.08941,0,0,0-40-59.31335V94.62744a23.84254,23.84254,0,0,0-7.0293-16.9707L264,68.68628V48h16V32H264V16H248V32H232V48h16V68.68628l-8.9707,8.97046A23.84254,23.84254,0,0,0,232,94.62744v14.05921A64.08941,64.08941,0,0,0,192,168v15.05566l-58.7334,29.3667L144,233.88867V264a24.02718,24.02718,0,0,1-24,24H104V264H88v24H40V264H24v24H16v16h8v32H16v27.31348l8,8V480H16v16H496V480h-8V371.31348l8-8V336h-8V304Zm-72,0h48v32H424Zm-56-8.022A39.79015,39.79015,0,0,0,392,304h16v32H368ZM248,94.62744a7.94677,7.94677,0,0,1,2.34375-5.65723L256,83.31348l5.65625,5.65673A7.94677,7.94677,0,0,1,264,94.62744v9.89038a62.05645,62.05645,0,0,0-16,0ZM208,168a48,48,0,0,1,96,0v7.05566l-48-24-48,24Zm48,.94434,101.2666,50.6333L355.05566,224H156.94434l-2.21094-4.42236ZM256,256a40.04552,40.04552,0,0,0-40,40v40H200V240H312v96H296V296A40.04552,40.04552,0,0,0,256,256Zm-24,48v-8a24,24,0,0,1,48,0v8Zm48,16v16H264V320Zm-32,0v16H232V320Zm-64-80v96H160V240Zm-80,64h16a39.79015,39.79015,0,0,0,24-8.022V336H104Zm-64,0H88v32H40Zm88,176H80V416h48ZM81.37622,400a23.99486,23.99486,0,0,1,45.24756,0ZM168,480H144V408a40,40,0,0,0-80,0v72H40V364.68652l-8-8V352H168Zm112,0H232V424h48Zm2.23389-72H229.76611l-3.7915-11.37354L256,384.61621l30.02539,12.01025ZM328,480H296V417.29834l9.97461-29.9248L256,367.38379l-49.97461,19.98975L216,417.29834V480H184V352H328Zm0-240h24v96H328ZM432,480H384V416h48Zm-46.62378-80a23.99486,23.99486,0,0,1,45.24756,0ZM480,356.68652l-8,8V480H448V408a40,40,0,0,0-80,0v72H344V352H480Z"/></g></svg>