<svg xmlns="http://www.w3.org/2000/svg"  width="30" height="30" viewBox="0 0 64 64"><g data-name="Layer 8"><path d="M53.029,10.97A17,17,0,1,0,58.01,22.993,16.892,16.892,0,0,0,53.029,10.97ZM51.615,33.6a15,15,0,1,1,4.394-10.608A14.9,14.9,0,0,1,51.615,33.6Z"/><path d="M33.226 15.214a10.934 10.934 0 0 1 7.78-3.223v-2A12.916 12.916 0 0 0 31.812 13.8zM29.179 17.575L31 18.409a10.937 10.937 0 0 1 1.068-1.833l-1.623-1.169A12.907 12.907 0 0 0 29.179 17.575z"/><path d="M57.272,6.727A22.989,22.989,0,0,0,22.794,37l-6.063,6.062-.775-.776a1,1,0,0,0-1.415,0L1.4,55.427a4.8,4.8,0,0,0,0,6.783l.385.385a4.8,4.8,0,0,0,6.783,0L21.709,49.457a1,1,0,0,0,0-1.414l-.775-.776,6.06-6.06A22.991,22.991,0,0,0,57.272,6.727ZM7.157,61.181a2.864,2.864,0,0,1-3.955,0L2.817,60.8a2.8,2.8,0,0,1,0-3.953L15.249,44.411l4.339,4.339ZM19.609,45.763l-1.373-1.374,5.746-5.746c.227.251.447.483.669.7s.454.443.705.669Zm36.249-7.914a20.888,20.888,0,0,1-28.274,1.3c-.563-.468-1.019-.88-1.434-1.3s-.827-.871-1.295-1.434a21,21,0,1,1,31,1.434Z"/></g></svg>