<svg xmlns="http://www.w3.org/2000/svg" width="30" height="30" viewBox="0 0 64 64"><g data-name="04-picnic"><path d="M63 64H1a1 1 0 0 1-1-1V59a1 1 0 0 1 1-1H63a1 1 0 0 1 1 1v4A1 1 0 0 1 63 64zM2 62H62V60H2zM19 49H3a1 1 0 0 1-1-1V44a1 1 0 0 1 1-1H18a1 1 0 0 1 .707.293l1 1A1 1 0 0 1 20 45v3A1 1 0 0 1 19 49zM4 47H18V45.414L17.586 45H4z"/><rect width="2" height="11" x="3" y="48"/><rect width="2" height="11" x="7" y="48"/><rect width="2" height="11" x="13" y="48"/><rect width="2" height="11" x="17" y="48"/><path d="M7,40H3a1,1,0,0,1-1-1V30a1,1,0,0,1,.293-.707l1-1A1,1,0,0,1,4,28H6a1,1,0,0,1,.707.293l1,1A1,1,0,0,1,8,30v9A1,1,0,0,1,7,40ZM4,38H6V30.414L5.586,30H4.414L4,30.414Z"/><rect width="2" height="5" x="4" y="39"/><rect width="6" height="2" x="8" y="54"/><path d="M61,49H45a1,1,0,0,1-1-1V45a1,1,0,0,1,.293-.707l1-1A1,1,0,0,1,46,43H61a1,1,0,0,1,1,1v4A1,1,0,0,1,61,49ZM46,47H60V45H46.414L46,45.414Z"/><rect width="2" height="11" x="59" y="48"/><rect width="2" height="11" x="55" y="48"/><rect width="2" height="11" x="49" y="48"/><rect width="2" height="11" x="45" y="48"/><path d="M61,40H57a1,1,0,0,1-1-1V30a1,1,0,0,1,.293-.707l1-1A1,1,0,0,1,58,28h2a1,1,0,0,1,.707.293l1,1A1,1,0,0,1,62,30v9A1,1,0,0,1,61,40Zm-3-2h2V30.414L59.586,30H58.414L58,30.414Z"/><rect width="2" height="5" x="58" y="39"/><rect width="6" height="2" x="50" y="54"/><path d="M49,38H15a1,1,0,0,1-1-1V33a1,1,0,0,1,1-1H49a1,1,0,0,1,1,1v4A1,1,0,0,1,49,38ZM16,36H48V34H16Z"/><path d="M41 42H23a1 1 0 0 1-1-1V37h2v3H40V37h2v4A1 1 0 0 1 41 42zM40 59H38V56H26v3H24V55a1 1 0 0 1 1-1H39a1 1 0 0 1 1 1z"/><rect width="2" height="14" x="28" y="41"/><rect width="2" height="14" x="34" y="41"/><path d="M52,15a1,1,0,0,1-1-1,3,3,0,0,0-6,0,1,1,0,0,1-2,0,3,3,0,0,0-6,0,1,1,0,0,1-2,0,3,3,0,0,0-6,0,1,1,0,0,1-2,0,3,3,0,0,0-6,0,1,1,0,0,1-2,0,3,3,0,0,0-6,0,1,1,0,0,1-2,0V5a1,1,0,0,1,.293-.707l4-4A1,1,0,0,1,16,0H48a1,1,0,0,1,.707.293l4,4A1,1,0,0,1,53,5v9A1,1,0,0,1,52,15ZM40,9a5,5,0,0,1,4,2,4.993,4.993,0,0,1,7-1V5.414L47.586,2H16.414L13,5.414V10a4.993,4.993,0,0,1,7,1,5,5,0,0,1,8,0,5,5,0,0,1,8,0A5,5,0,0,1,40,9Z"/><rect width="2" height="23" x="31" y="10"/><path d="M21 14H19V5a1 1 0 0 1 .293-.707l4-4 1.414 1.414L21 5.414zM45 14H43V5.414L39.293 1.707 40.707.293l4 4A1 1 0 0 1 45 5zM37 14H35V5.414l-3-3-3 3V14H27V5a1 1 0 0 1 .293-.707l4-4a1 1 0 0 1 1.414 0l4 4A1 1 0 0 1 37 5z"/></g></svg>