<svg xmlns="http://www.w3.org/2000/svg"  width="30" height="30" enable-background="new 0 0 32 32" viewBox="0 0 32 32"><path fill="#231f20" d="M24.2,7.3h-1.3C23,7.2,23,7,23,6.9V6.8c0-0.7-0.6-1.3-1.3-1.3h-0.6c-0.4-1.5-1.8-2.6-3.4-2.6h-0.6
		c-1.9,0-3.5,1.6-3.5,3.5v0.7v4v17.1H7.8c-0.2,0-0.4,0.2-0.4,0.4s0.2,0.4,0.4,0.4h12.5c0.2,0,0.4-0.2,0.4-0.4s-0.2-0.4-0.4-0.4h-5.8
		V11.1v-4V6.4c0-1.5,1.2-2.6,2.6-2.6h0.6c1.1,0,2.1,0.7,2.5,1.7h-0.3c-0.7,0-1.3,0.6-1.3,1.3v0.1c0,0.1,0,0.3,0.1,0.4h-1.3
		c-0.2,0-0.4,0.2-0.4,0.4v0.5c0,1.4,1.1,2.5,2.5,2.5h2.7c1.4,0,2.5-1.1,2.5-2.5V7.7C24.6,7.5,24.4,7.3,24.2,7.3z M19.5,6.9V6.8
		c0-0.2,0.2-0.4,0.4-0.4h1.9c0.2,0,0.4,0.2,0.4,0.4v0.1c0,0.2-0.2,0.4-0.4,0.4h-1.9C19.6,7.3,19.5,7.1,19.5,6.9z M23.7,8.2
		c0,0.9-0.7,1.6-1.6,1.6h-2.7c-0.9,0-1.6-0.7-1.6-1.6V8.2h2h1.9L23.7,8.2L23.7,8.2z"/><path fill="#231f20" d="M19.5 12.4c0-.2-.2-.4-.4-.4s-.4.2-.4.4v1.3c0 .2.2.4.4.4s.4-.2.4-.4V12.4zM19.8 16.7c.2 0 .4-.2.4-.4V15c0-.2-.2-.4-.4-.4s-.4.2-.4.4v1.3C19.4 16.5 19.6 16.7 19.8 16.7zM21.7 14.6c-.2 0-.4.2-.4.4v1.3c0 .2.2.4.4.4s.4-.2.4-.4V15C22.1 14.8 21.9 14.6 21.7 14.6zM20.8 17.2c-.2 0-.4.2-.4.4v1.3c0 .2.2.4.4.4s.4-.2.4-.4v-1.3C21.2 17.4 21 17.2 20.8 17.2zM20.8 14.1c.2 0 .4-.2.4-.4v-1.3c0-.2-.2-.4-.4-.4s-.4.2-.4.4v1.3C20.3 13.9 20.5 14.1 20.8 14.1zM22.6 11.9c-.2 0-.4.2-.4.4v1.3c0 .2.2.4.4.4s.4-.2.4-.4v-1.3C23 12.1 22.8 11.9 22.6 11.9z"/></svg>