<svg xmlns="http://www.w3.org/2000/svg"  width="30" height="30" enable-background="new 0 0 100 100" viewBox="0 0 100 100"><path d="M83 63h-7.54c1.23-4.37 4.04-7.26 7.93-8.04l0 0c.05-.01.1-.03.15-.05.07-.02.15-.04.22-.07.04-.02.08-.04.13-.07.07-.04.14-.07.21-.11.04-.03.07-.06.11-.09.06-.05.12-.09.18-.15.04-.04.07-.07.1-.11.05-.05.1-.11.14-.17.03-.04.06-.09.08-.14.04-.06.07-.12.1-.18.02-.05.04-.1.06-.16.02-.07.05-.13.06-.2.01-.05.02-.11.03-.16.01-.07.02-.15.02-.22 0-.03.01-.05.01-.08 0-.06-.01-.13-.01-.19 0 0 0 0 0-.01l0 0C84.88 46.28 79.55 41 73 41H27c-6.55 0-11.88 5.28-11.99 11.8l0 0c0 0 0 0 0 .01 0 .06-.01.13-.01.19 0 .03.01.06.01.08 0 .07.01.15.02.22.01.06.02.11.03.16.02.07.04.14.06.2.02.05.04.11.06.16.03.06.06.12.1.18.03.05.05.1.09.14.04.06.09.11.14.17.03.04.07.08.1.11.06.05.12.1.18.15.04.03.07.06.11.09.06.04.13.07.2.11.04.02.09.05.13.07.07.03.14.04.2.06.06.02.11.04.17.05l0 0c3.89.78 6.7 3.67 7.93 8.04H17c-1.1 0-2 .9-2 2 0 6.62 5.38 12 12 12v11c0 3.86 3.14 7 7 7s7-3.14 7-7V77h18v11c0 3.86 3.14 7 7 7s7-3.14 7-7V77c6.62 0 12-5.38 12-12C85 63.9 84.1 63 83 63zM27 45h46c3.72 0 6.86 2.55 7.75 6h-61.5C20.14 47.55 23.28 45 27 45zM24.59 55h50.83c-1.95 2.05-3.35 4.77-4.08 8H28.67C27.94 59.77 26.53 57.05 24.59 55zM37 88c0 1.65-1.35 3-3 3s-3-1.35-3-3V77h6V88zM69 88c0 1.65-1.35 3-3 3s-3-1.35-3-3V77h6V88zM73 73h-2H61 39 29h-2c-3.72 0-6.86-2.55-7.75-6H27h46 7.75C79.86 70.45 76.72 73 73 73zM38 21h4.26c.19.73.48 1.42.85 2.06l-3.02 3.02c-.78.78-.78 2.05 0 2.83.39.39.9.59 1.41.59s1.02-.2 1.41-.59l3.02-3.02c.63.38 1.32.66 2.06.85V31c0 1.1.9 2 2 2s2-.9 2-2v-4.26c.73-.19 1.42-.48 2.05-.85l3.02 3.02c.39.39.9.59 1.41.59s1.02-.2 1.41-.59c.78-.78.78-2.05 0-2.83l-3.02-3.02c.38-.63.66-1.32.85-2.06H62c1.1 0 2-.9 2-2s-.9-2-2-2h-4.26c-.19-.73-.48-1.42-.85-2.06l3.02-3.02c.78-.78.78-2.05 0-2.83s-2.05-.78-2.83 0l-3.02 3.02c-.63-.38-1.32-.66-2.05-.85V7c0-1.1-.9-2-2-2s-2 .9-2 2v4.26c-.73.19-1.42.48-2.06.85L42.93 9.1c-.78-.78-2.05-.78-2.83 0-.78.78-.78 2.05 0 2.83l3.02 3.02c-.38.63-.66 1.32-.85 2.06H38c-1.1 0-2 .9-2 2S36.9 21 38 21zM50 15c2.21 0 4 1.79 4 4s-1.79 4-4 4-4-1.79-4-4S47.79 15 50 15z"/></svg>