<svg xmlns="http://www.w3.org/2000/svg" enable-background="new 0 0 32 32" viewBox="0 0 32 32"><path fill="#231f20" d="M19.9,21.2h-1.6c-0.2,0-0.4,0.2-0.4,0.4s0.2,0.4,0.4,0.4h1.6c0.2,0,0.4-0.2,0.4-0.4S20.2,21.2,19.9,21.2z"/><path fill="#231f20" d="M28.5,12.9h-0.9v-2.2c0-3.4-2.5-6.2-5.6-6.2H10.4c-3.2,0-5.8,3.7-6,8.4H3.5c-0.2,0-0.4,0.2-0.4,0.4
		c0,0.2,0.2,0.4,0.4,0.4h0.9c0.2,4.7,2.8,8.4,6,8.4h5.1v3.3c0,0.2,0.2,0.4,0.4,0.4c0.3,0,0.4,0.2,0.8,0.6c0.3,0.4,0.7,1,1.5,1
		c0.8,0,1.2-0.6,1.5-1c0.3-0.4,0.5-0.6,0.8-0.6c0.3,0,0.4,0.2,0.7,0.6c0.3,0.4,0.7,1,1.5,1c0.8,0,1.2-0.6,1.5-1
		c0.3-0.4,0.5-0.6,0.7-0.6c0.3,0,0.4,0.2,0.7,0.6c0.3,0.4,0.7,1,1.5,1c0.2,0,0.4-0.2,0.4-0.4V13.8h0.9c0.2,0,0.4-0.2,0.4-0.4
		C29,13.1,28.8,12.9,28.5,12.9z M5.3,13.8h1.5c0.2,2.7,1.7,4.8,3.6,4.8c2,0,3.6-2.3,3.6-5.2s-1.6-5.2-3.6-5.2
		c-1.9,0-3.4,2.1-3.6,4.8H5.3c0.2-4.2,2.4-7.5,5.1-7.5c2.8,0,5.1,3.6,5.1,8s-2.3,8-5.1,8C7.7,21.3,5.5,18,5.3,13.8z M13.1,13.8
		c-0.1,2.1-1.3,3.9-2.7,3.9s-2.5-1.7-2.7-3.9H13.1z M7.7,12.9C7.9,10.7,9.1,9,10.4,9s2.5,1.7,2.7,3.9H7.7z M13,21.3
		c1-0.7,1.9-1.9,2.5-3.4v3.4H13z M24.9,25.1c-0.8,0-1.2,0.6-1.5,1c-0.3,0.4-0.5,0.6-0.7,0.6c-0.3,0-0.4-0.2-0.7-0.6
		c-0.3-0.4-0.7-1-1.5-1c-0.8,0-1.2,0.6-1.5,1c-0.3,0.4-0.5,0.6-0.8,0.6s-0.4-0.2-0.8-0.6c-0.2-0.3-0.5-0.7-1-0.9V14.3
		c0-0.1,0-0.1,0-0.1c0-0.3,0-0.6,0-0.9c0-3.5-1.4-6.5-3.4-8h9c2.6,0,4.7,2.4,4.7,5.3v10.6h-3.8c-0.2,0-0.4,0.2-0.4,0.4
		s0.2,0.4,0.4,0.4h3.8v4.3c-0.1-0.1-0.2-0.2-0.3-0.4C26.1,25.6,25.7,25.1,24.9,25.1z"/></svg>