<svg xmlns="http://www.w3.org/2000/svg" width="35" height="35" enable-background="new 0 0 32 32" viewBox="0 0 32 32"><path fill="#231f20" d="M24.7,13.3l-7.4-5.3c-0.3-0.2-0.5-0.3-0.8-0.4V7.1c0.9-0.2,1.6-1,1.6-2C18.1,4,17.1,3,16,3S13.9,4,13.9,5.1
	c0,0.3,0.2,0.5,0.5,0.5s0.5-0.2,0.5-0.5c0-0.6,0.5-1.1,1.1-1.1c0.6,0,1.1,0.5,1.1,1.1c0,0.6-0.5,1.1-1.1,1.1c-0.3,0-0.5,0.2-0.5,0.5
	v1c-0.3,0.1-0.6,0.2-0.9,0.4l-7.4,5.2c-0.8,0.5-1.1,1.5-0.8,2.4c0.3,0.9,1.1,1.5,2,1.5h2.3v11.3c0,0.3,0.2,0.5,0.5,0.5h9.2
	c0.3,0,0.5-0.2,0.5-0.5V17.2h2.3c0.9,0,1.7-0.6,2-1.5C25.7,14.8,25.4,13.9,24.7,13.3z M20.2,16.7C20.2,16.7,20.2,16.7,20.2,16.7
	C20.2,16.8,20.2,16.8,20.2,16.7v7.7h-8.3v-7.7c0,0,0,0,0,0c0,0,0,0,0,0v-1.6h8.3V16.7z M11.8,28.1v-2.7h8.3v2.7H11.8z M24.6,15.4
	c-0.1,0.4-0.5,0.9-1.2,0.9h-2.3v-1.6c0-0.3-0.2-0.5-0.5-0.5h-9.2c-0.3,0-0.5,0.2-0.5,0.5v1.6H8.6c-0.7,0-1-0.4-1.2-0.9
	c-0.1-0.4-0.1-1,0.5-1.4l7.4-5.2c0.5-0.3,1.1-0.3,1.6,0l7.4,5.3C24.7,14.4,24.7,15,24.6,15.4z"/></svg>