<svg xmlns="http://www.w3.org/2000/svg" width="30" height="30" viewBox="0 0 32 32"><path style="line-height:normal;text-indent:0;text-align:start;text-decoration-line:none;text-decoration-style:solid;text-decoration-color:#000;text-transform:none;block-progression:tb;white-space:normal;isolation:auto;mix-blend-mode:normal;solid-color:#000;solid-opacity:1" d="M 0.5 0 A 0.50005 0.50005 0 0 0 0 0.5 L 0 1.5 C 0 2.3224 0.67764862 3 1.5 3 L 2 3 L 2 4.5 A 0.50005 0.50005 0 0 0 2.5 5 L 3 5 L 3 27 L 2.5 27 A 0.50005 0.50005 0 0 0 2 27.5 L 2 29 L 1.5 29 C 0.67764862 29 0 29.6777 0 30.5 L 0 31.5 A 0.50005 0.50005 0 0 0 0.5 32 L 30.5 32 A 0.50005 0.50005 0 0 0 31 31.5 L 31 30.5 C 31 29.6777 30.322351 29 29.5 29 L 29 29 L 29 27.5 A 0.50005 0.50005 0 0 0 28.5 27 L 28 27 L 28 5 L 28.5 5 A 0.50005 0.50005 0 0 0 29 4.5 L 29 3 L 29.5 3 C 30.322351 3 31 2.3224 31 1.5 L 31 0.5 A 0.50005 0.50005 0 0 0 30.5 0 L 0.5 0 z M 1 1 L 30 1 L 30 1.5 C 30 1.7857 29.785649 2 29.5 2 L 28.535156 2 L 2.5 2 L 1.5 2 C 1.2143514 2 1 1.7857 1 1.5 L 1 1 z M 3 3 L 28 3 L 28 4 L 3 4 L 3 3 z M 4 5 L 15 5 L 15 27 L 4 27 L 4 5 z M 16 5 L 27 5 L 27 27 L 16 27 L 16 5 z M 6.4121094 6 A 0.50005 0.50005 0 0 0 5.9414062 6.3339844 C 5.8405477 6.6182844 5.6162905 6.8406062 5.3320312 6.9414062 A 0.50005 0.50005 0 0 0 5 7.4121094 L 5 16.587891 A 0.50005 0.50005 0 0 0 5.3320312 17.060547 C 5.616439 17.161447 5.8405428 17.383569 5.9414062 17.667969 A 0.50005 0.50005 0 0 0 6.4121094 18 L 12.587891 18 A 0.50005 0.50005 0 0 0 13.058594 17.667969 C 13.159457 17.383669 13.383562 17.161447 13.667969 17.060547 A 0.50005 0.50005 0 0 0 14 16.587891 L 14 7.4121094 A 0.50005 0.50005 0 0 0 13.667969 6.9414062 C 13.383709 6.8406063 13.159452 6.6182844 13.058594 6.3339844 A 0.50005 0.50005 0 0 0 12.587891 6 L 6.4121094 6 z M 18.412109 6 A 0.50005 0.50005 0 0 0 17.941406 6.3339844 C 17.840545 6.6182844 17.616288 6.8406062 17.332031 6.9414062 A 0.50005 0.50005 0 0 0 17 7.4121094 L 17 16.589844 A 0.50005 0.50005 0 0 0 17.332031 17.060547 C 17.616354 17.161347 17.84054 17.383569 17.941406 17.667969 A 0.50005 0.50005 0 0 0 18.412109 18 L 24.587891 18 A 0.50005 0.50005 0 0 0 25.058594 17.667969 C 25.15946 17.383569 25.383646 17.161347 25.667969 17.060547 A 0.50005 0.50005 0 0 0 26 16.589844 L 26 7.4121094 A 0.50005 0.50005 0 0 0 25.667969 6.9414062 C 25.383712 6.8406063 25.159455 6.6182844 25.058594 6.3339844 A 0.50005 0.50005 0 0 0 24.587891 6 L 18.412109 6 z M 6.5507812 7 L 12.449219 7 C 12.597292 7.2235 12.776506 7.4046344 13 7.5527344 L 13 16.449219 C 12.777321 16.596819 12.599035 16.7775 12.451172 17 L 6.5488281 17 C 6.4009652 16.7775 6.2226792 16.596819 6 16.449219 L 6 7.5527344 C 6.2234938 7.4046344 6.4027075 7.2235 6.5507812 7 z M 18.550781 7 L 24.449219 7 C 24.597293 7.2235 24.776507 7.4046344 25 7.5527344 L 25 16.449219 C 24.777299 16.596819 24.59904 16.7775 24.451172 17 L 18.548828 17 C 18.40096 16.7775 18.222701 16.596819 18 16.449219 L 18 7.5527344 C 18.223493 7.4046344 18.402707 7.2235 18.550781 7 z M 11.441406 19 A 0.50005 0.50005 0 0 0 11.492188 20 L 13.492188 20 A 0.50005 0.50005 0 1 0 13.492188 19 L 11.492188 19 A 0.50005 0.50005 0 0 0 11.441406 19 z M 17.457031 19 A 0.50005 0.50005 0 0 0 17.507812 20 L 19.507812 20 A 0.50005 0.50005 0 1 0 19.507812 19 L 17.507812 19 A 0.50005 0.50005 0 0 0 17.457031 19 z M 6.4121094 21 A 0.50005 0.50005 0 0 0 5.9414062 21.333984 C 5.8405455 21.618284 5.6162884 21.840606 5.3320312 21.941406 A 0.50005 0.50005 0 0 0 5 22.412109 L 5 24.587891 A 0.50005 0.50005 0 0 0 5.3320312 25.060547 C 5.6162884 25.161347 5.8405456 25.383669 5.9414062 25.667969 A 0.50005 0.50005 0 0 0 6.4121094 26 L 12.587891 26 A 0.50005 0.50005 0 0 0 13.058594 25.667969 C 13.159455 25.383669 13.383712 25.161347 13.667969 25.060547 A 0.50005 0.50005 0 0 0 14 24.587891 L 14 22.412109 A 0.50005 0.50005 0 0 0 13.667969 21.941406 C 13.383712 21.840606 13.159455 21.618284 13.058594 21.333984 A 0.50005 0.50005 0 0 0 12.587891 21 L 6.4121094 21 z M 18.412109 21 A 0.50005 0.50005 0 0 0 17.941406 21.333984 C 17.840546 21.618284 17.616289 21.840606 17.332031 21.941406 A 0.50005 0.50005 0 0 0 17 22.412109 L 17 24.587891 A 0.50005 0.50005 0 0 0 17.332031 25.060547 C 17.616289 25.161347 17.840546 25.383669 17.941406 25.667969 A 0.50005 0.50005 0 0 0 18.412109 26 L 24.587891 26 A 0.50005 0.50005 0 0 0 25.058594 25.667969 C 25.159455 25.383669 25.383712 25.161347 25.667969 25.060547 A 0.50005 0.50005 0 0 0 26 24.587891 L 26 22.412109 A 0.50005 0.50005 0 0 0 25.667969 21.941406 C 25.383712 21.840606 25.159455 21.618284 25.058594 21.333984 A 0.50005 0.50005 0 0 0 24.587891 21 L 18.412109 21 z M 6.5507812 22 L 12.449219 22 C 12.597293 22.2235 12.776507 22.404634 13 22.552734 L 13 24.449219 C 12.777298 24.596819 12.599029 24.7776 12.451172 25 L 6.5488281 25 C 6.400971 24.7776 6.222702 24.596819 6 24.449219 L 6 22.552734 C 6.2234931 22.404634 6.4027074 22.2235 6.5507812 22 z M 18.550781 22 L 24.449219 22 C 24.597293 22.2235 24.776507 22.404634 25 22.552734 L 25 24.449219 C 24.777298 24.596819 24.599029 24.7776 24.451172 25 L 18.548828 25 C 18.400971 24.7776 18.222702 24.596819 18 24.449219 L 18 22.552734 C 18.223493 22.404634 18.402707 22.2235 18.550781 22 z M 3 28 L 28 28 L 28 29 L 3 29 L 3 28 z M 1.5 30 L 29.5 30 C 29.785649 30 30 30.2144 30 30.5 L 30 31 L 1 31 L 1 30.5 C 1 30.2144 1.2143514 30 1.5 30 z " color="#000" enable-background="accumulate" font-family="sans-serif" font-weight="400" overflow="visible"/></svg>