<svg xmlns="http://www.w3.org/2000/svg" width="30" height="30" viewBox="0 0 32 32"><g transform="translate(0 -1020.362)"><path fill-rule="evenodd" d="m 5.4981684,1021.3622 c -0.8224168,0 -1.4981718,0.6757 -1.4981718,1.498 v 27.004 c 0,0.8223 0.675755,1.498 1.4981718,1.498 H 26.501826 c 0.822417,0 1.498172,-0.6757 1.498172,-1.498 v -27.004 c 0,-0.8223 -0.675755,-1.498 -1.498172,-1.498 z m 0,0.9961 H 21.001379 v 5.0059 H 4.9961776 v -4.504 c 0,-0.2857 0.2163076,-0.5019 0.5019908,-0.5019 z m 16.4993916,0 h 4.504266 c 0.285683,0 0.502001,0.2162 0.502001,0.5019 v 27.004 c 0,0.2857 -0.216308,0.4941 -0.502001,0.4941 H 5.4981684 c -0.2856832,0 -0.5019908,-0.2086 -0.5019908,-0.4941 v -0.502 H 25.999835 v -1.0039 H 4.9961776 v -19.9981 H 25.999835 v -0.996 H 21.99756 Z" color="#000" font-family="sans-serif" font-weight="400" overflow="visible" style="line-height:normal;font-variant-ligatures:normal;font-variant-position:normal;font-variant-caps:normal;font-variant-numeric:normal;font-variant-alternates:normal;font-feature-settings:normal;text-indent:0;text-align:start;text-decoration-line:none;text-decoration-style:solid;text-decoration-color:#000;text-transform:none;text-orientation:mixed;shape-padding:0;isolation:auto;mix-blend-mode:normal"/><path d="M18.499227 1023.3628c.82242 0 1.498647.6762 1.498647 1.4985 0 .8224-.676227 1.4986-1.498647 1.4986h-2.997292c-.822417 0-1.498644-.6762-1.498644-1.4986 0-.8223.676227-1.4985 1.498644-1.4985zm0 .9966h-2.997292c-.28568 0-.502008.2162-.502008.5019 0 .2858.21632.502.502008.502h2.997292c.285679 0 .502011-.2162.502011-.502 0-.2857-.21632-.5019-.502011-.5019zM7.4993176 1029.3643c.822991 0 1.498644.6756 1.498644 1.4985 0 .8229-.675653 1.4985-1.498644 1.4985-.822991 0-1.498644-.6756-1.498644-1.4985 0-.8229.675653-1.4985 1.498644-1.4985zm0 .9966c-.2825049 0-.5020112.2196-.5020112.5019 0 .2824.219495.502.5020112.502.2825048 0 .5020112-.2196.5020112-.502 0-.2823-.219495-.5019-.5020112-.5019zM15.885826 1030.8628c-1.845501.026-3.685887.6868-5.160359 1.9784-2.9489514 2.5831-3.5905444 6.936-1.5134118 10.2608 2.0771328 3.3248 6.2703528 4.6547 9.8851528 3.1373 3.614803-1.5174 5.598899-5.4457 4.680501-9.2569a.50135842.50131766 0 1 0-.97449.2362c.80515 3.3412-.928309 6.7677-4.097281 8.098-3.168976 1.3302-6.823913.1685-8.644898-2.7461-1.8209806-2.9148-1.2564169-6.7118 1.32885-8.9764 2.585267-2.2646 6.416005-2.3217 9.065696-.133a.50050809.5004674 0 1 0 .642277-.7677c-1.51122-1.2484-3.366536-1.8574-5.212037-1.8307z" color="#000" font-family="sans-serif" font-weight="400" overflow="visible" style="line-height:normal;font-variant-ligatures:normal;font-variant-position:normal;font-variant-caps:normal;font-variant-numeric:normal;font-variant-alternates:normal;font-feature-settings:normal;text-indent:0;text-align:start;text-decoration-line:none;text-decoration-style:solid;text-decoration-color:#000;text-transform:none;text-orientation:mixed;shape-padding:0;isolation:auto;mix-blend-mode:normal"/><path fill-rule="evenodd" d="m 12.002635,1039.3594 a 0.50009067,0.50005001 0 0 0 -0.295318,0.1032 c 0,0 -0.293126,0.2283 -0.671805,0.4576 -0.378694,0.2295 -0.866251,0.4353 -1.033551,0.443 l 0.0443,0.9965 c 0.574512,-0.026 1.073885,-0.3213 1.50603,-0.5831 0.258125,-0.1565 0.320341,-0.2109 0.457711,-0.31 0.137889,0.1028 0.198631,0.1576 0.457716,0.3175 0.434352,0.268 0.939791,0.5758 1.535558,0.5758 0.595766,0 1.108591,-0.308 1.542939,-0.5758 0.259108,-0.1599 0.319812,-0.2147 0.457716,-0.3175 0.138228,0.1028 0.194056,0.1595 0.450333,0.3175 0.434352,0.268 0.939792,0.5758 1.535558,0.5758 0.595766,0 1.108588,-0.308 1.54294,-0.5758 0.259108,-0.1599 0.319812,-0.2147 0.457711,-0.3175 0.137511,0.099 0.193339,0.1542 0.450334,0.31 0.432133,0.2619 0.938967,0.5568 1.513412,0.5831 l 0.0443,-0.9965 c -0.167371,-0.01 -0.654849,-0.2132 -1.033546,-0.443 -0.378698,-0.2294 -0.671806,-0.4576 -0.671806,-0.4576 a 0.50009067,0.50005001 0 0 0 -0.620131,0.01 c 0,0 -0.295507,0.2328 -0.671805,0.4651 -0.376282,0.2321 -0.864577,0.4281 -1.0114,0.4281 -0.146809,0 -0.635115,-0.1961 -1.011401,-0.4281 -0.376283,-0.2321 -0.664427,-0.4651 -0.664427,-0.4651 a 0.50009067,0.50005001 0 0 0 -0.627509,0 c 0,0 -0.288137,0.2328 -0.664427,0.4651 -0.376283,0.2321 -0.871967,0.4281 -1.018783,0.4281 -0.146809,0 -0.635114,-0.1961 -1.011401,-0.4281 -0.376282,-0.2321 -0.664423,-0.4651 -0.664423,-0.4651 a 0.50009067,0.50005001 0 0 0 -0.324839,-0.1107 z" color="#000" font-family="sans-serif" font-weight="400" overflow="visible" style="line-height:normal;font-variant-ligatures:normal;font-variant-position:normal;font-variant-caps:normal;font-variant-numeric:normal;font-variant-alternates:normal;font-feature-settings:normal;text-indent:0;text-align:start;text-decoration-line:none;text-decoration-style:solid;text-decoration-color:#000;text-transform:none;text-orientation:mixed;shape-padding:0;isolation:auto;mix-blend-mode:normal"/><path d="M25.0032 1023.3628v.9966h.996636v-.9966zM23.002548 1023.3628v.9966h.996633v-.9966zM25.0032 1025.3633v.9966h.996636v-.9966zM23.002548 1025.3633v.9966h.996633v-.9966z" color="#000" font-family="sans-serif" font-weight="400" overflow="visible" style="line-height:normal;font-variant-ligatures:normal;font-variant-position:normal;font-variant-caps:normal;font-variant-numeric:normal;font-variant-alternates:normal;font-feature-settings:normal;text-indent:0;text-align:start;text-decoration-line:none;text-decoration-style:solid;text-decoration-color:#000;text-transform:none;text-orientation:mixed;shape-padding:0;isolation:auto;mix-blend-mode:normal"/><path d="m 21.750849,1034.8608 0.625049,0.625 0.625048,-0.625 -0.625048,-0.625 z"/></g></svg>