<svg xmlns="http://www.w3.org/2000/svg" width="30" height="30" data-name="towel" viewBox="0 0 64 64"><path fill="#231f20" d="M57,20a4.9814,4.9814,0,0,0-2.0309-4A4.9847,4.9847,0,0,0,52,7H16a8.9939,8.9939,0,0,0-4.1041,17,8.9841,8.9841,0,0,0,0,16A8.9939,8.9939,0,0,0,16,57H52a4.9847,4.9847,0,0,0,2.9691-9,4.9545,4.9545,0,0,0,0-8,4.9545,4.9545,0,0,0,0-8,4.9545,4.9545,0,0,0,0-8A4.9814,4.9814,0,0,0,57,20ZM55,44a3.0033,3.0033,0,0,1-3,3H19a1,1,0,0,0,0,2H52a3,3,0,0,1,0,6H16a7,7,0,0,1,0-14H52A3.0033,3.0033,0,0,1,55,44Zm0-16a3.0033,3.0033,0,0,1-3,3H19a1,1,0,0,0,0,2H52a3,3,0,0,1,0,6H16a7,7,0,0,1,0-14H52A3.0033,3.0033,0,0,1,55,28Zm-3-5H16A7,7,0,0,1,16,9H52a3,3,0,0,1,0,6H19a1,1,0,0,0,0,2H52A3,3,0,0,1,52,23Z"/></svg>