<svg xmlns="http://www.w3.org/2000/svg" width="30" height="30" viewBox="0 0 32 32"><g transform="translate(0 -1020.362)"><path fill-rule="evenodd" d="m 14.499998,1021.3622 2.031697,23.5723 v 4.4277 c -1.5e-5,1.0987 0.89557,2 1.98706,2 h 5.462487 c 1.091497,0 1.989014,-0.9013 1.988999,-2 v -4.502 l 2.029757,-23.498 z m 1.076977,0.9981 h 11.338287 l -0.08731,1.0038 H 15.664308 Z m 0.172686,2 h 10.992881 l -1.727036,19.998 h -7.538808 z m 1.771669,21.0019 h 7.451486 v 2.9961 H 17.52133 Z m 0,4 h 7.451486 c 1.1e-5,0.5583 -0.437031,0.9961 -0.991589,0.9961 H 18.51874 c -0.554559,0 -0.997418,-0.4378 -0.99741,-0.9961 z" color="#000" font-family="sans-serif" font-weight="400" overflow="visible" style="line-height:normal;font-variant-ligatures:normal;font-variant-position:normal;font-variant-caps:normal;font-variant-numeric:normal;font-variant-alternates:normal;font-feature-settings:normal;text-indent:0;text-align:start;text-decoration-line:none;text-decoration-style:solid;text-decoration-color:#000;text-transform:none;text-orientation:mixed;shape-padding:0;isolation:auto;mix-blend-mode:normal"/><path d="M6.500001 1045.3622c-1.37345 0-2.50001-1.1208-2.4999987-2.4963.0000151-1.3754 1.1265676-2.5037 2.4999987-2.5037 1.3734123 0 2.4999798 1.1283 2.4999987 2.5037.0000076 1.3755-1.1265713 2.4963-2.4999987 2.4963zm0-.9971c.8335257 0 1.497052-.6645 1.4970482-1.4992-.0000113-.8348-.6635339-1.4993-1.4970482-1.4993-.8335256 0-1.4970406.6645-1.4970519 1.4993-.0000038.8348.6635149 1.4993 1.4970519 1.4992zM10.250003 1040.3622c-.9608467 0-1.7500007-.7891-1.7500007-1.75 0-.9608.789154-1.75 1.7500007-1.75.960846 0 1.75.7892 1.75 1.75 0 .9609-.789154 1.75-1.75 1.75zm0-.9968c.420253 0 .753165-.333.753165-.7532 0-.4202-.332938-.7532-.753165-.7532-.4202534 0-.7531655.333-.7531655.7532 0 .4203.3329008.7532.7531655.7532zM11.500002 1048.3622c-1.098399 0-2.0000124-.9016-2.000001-2 .0000151-1.0984.901625-2 2.000001-2 1.098357 0 1.999983.9016 1.999998 2 .000015 1.0984-.901622 2-1.999998 2zm0-1.0037c.55807 0 1.003695-.4383 1.003688-.9963-.000008-.5581-.445629-1.0037-1.003688-1.0037-.55807 0-.996302.4456-.99631 1.0037-.000003.5581.438229.9963.99631.9963z" color="#000" font-family="sans-serif" font-weight="400" overflow="visible" style="line-height:normal;font-variant-ligatures:normal;font-variant-position:normal;font-variant-caps:normal;font-variant-numeric:normal;font-variant-alternates:normal;font-feature-settings:normal;text-indent:0;text-align:start;text-decoration-line:none;text-decoration-style:solid;text-decoration-color:#000;text-transform:none;text-orientation:mixed;shape-padding:0;isolation:auto;mix-blend-mode:normal"/></g></svg>