<svg xmlns="http://www.w3.org/2000/svg" width="30" height="30" enable-background="new 0 0 100 100" viewBox="0 0 100 100"><path d="M68.251,44.022C61.525,33.756,55.878,23.5,53.11,18.3c-0.613-1.152-1.805-1.868-3.11-1.868
		c-1.305,0-2.496,0.715-3.109,1.868h0c-2.768,5.2-8.415,15.456-15.142,25.722c-10.371,15.828-5.207,28.184,3.083,34.468
		c4.465,3.385,9.817,5.077,15.168,5.077s10.703-1.692,15.168-5.077C73.458,72.206,78.621,59.851,68.251,44.022z M63.265,75.98
		c-7.811,5.92-18.72,5.92-26.53,0c-9.27-7.028-10.149-18.329-2.351-30.232c6.794-10.37,12.494-20.721,15.287-25.968l0,0
		c0.087-0.163,0.227-0.198,0.329-0.198c0.102,0,0.242,0.034,0.329,0.198c2.793,5.247,8.493,15.598,15.287,25.968
		C73.414,57.651,72.536,68.952,63.265,75.98z"/><path d="M39.508,73.546c-0.202-0.14-0.401-0.285-0.598-0.433c-0.001-0.001-0.001-0.001-0.002-0.002
		C39.105,73.26,39.305,73.405,39.508,73.546z"/><path d="M51.641,74.846c-0.074-0.29-0.23-0.545-0.44-0.744c-0.003-0.002-0.004-0.005-0.007-0.008
		c-0.055-0.052-0.118-0.096-0.18-0.14c-0.019-0.013-0.034-0.029-0.054-0.041c-0.052-0.033-0.109-0.058-0.166-0.085
		c-0.033-0.016-0.064-0.036-0.099-0.05c-0.049-0.019-0.102-0.031-0.153-0.045c-0.046-0.013-0.09-0.031-0.137-0.04
		c-0.049-0.009-0.1-0.009-0.151-0.014c-0.001,0-0.002,0-0.003,0c-0.054-0.005-0.106-0.015-0.16-0.015c-0.031,0-0.061,0-0.091,0
		c-3.316,0-6.579-1.089-9.189-3.064c-0.419-0.318-0.803-0.643-1.162-0.974c-0.112-0.104-0.221-0.207-0.328-0.312
		c-0.075-0.074-0.15-0.148-0.222-0.222c-0.119-0.122-0.234-0.245-0.346-0.369c-0.05-0.055-0.1-0.111-0.149-0.167
		c-0.126-0.145-0.248-0.291-0.365-0.437c-0.026-0.032-0.051-0.065-0.076-0.098c-0.134-0.172-0.263-0.345-0.384-0.52
		c-0.003-0.004-0.006-0.008-0.009-0.012c-2.381-3.44-2.318-7.329-1.204-10.958c0.009-0.031,0.019-0.062,0.028-0.093
		c0.093-0.297,0.194-0.591,0.3-0.884c0.087-0.241,0.173-0.483,0.269-0.721c-0.035,0.088-0.063,0.174-0.097,0.262
		c0.083-0.215,0.169-0.428,0.258-0.64c0.131-0.311,0.264-0.62,0.407-0.926c-0.015,0.032-0.027,0.063-0.042,0.096
		c0.056-0.122,0.114-0.243,0.172-0.364c-0.014,0.03-0.031,0.06-0.045,0.089c0.068-0.141,0.136-0.282,0.205-0.422
		c-0.054,0.11-0.107,0.221-0.16,0.333c0.169-0.352,0.346-0.705,0.536-1.062c-0.013,0.024-0.026,0.048-0.038,0.072
		c0.015-0.029,0.03-0.057,0.045-0.086c-0.003,0.005-0.004,0.009-0.007,0.014c0.032-0.061,0.064-0.121,0.097-0.181
		c-0.006,0.011-0.013,0.022-0.019,0.034c0.037-0.069,0.075-0.139,0.112-0.207c-0.031,0.057-0.062,0.116-0.093,0.173
		c0.227-0.42,0.465-0.842,0.72-1.269c-0.005,0.008-0.009,0.015-0.014,0.023c0.005-0.008,0.009-0.015,0.014-0.023
		c0.432-0.723,0.232-1.654-0.467-2.123c0,0,0,0-0.001,0c-0.092-0.061-0.189-0.112-0.289-0.153c-0.014-0.005-0.029-0.007-0.043-0.013
		c-0.087-0.032-0.175-0.06-0.266-0.076c0,0-0.001,0-0.002,0c-0.115-0.021-0.233-0.025-0.351-0.019
		c-0.091,0.004-0.182,0.013-0.271,0.033c-0.001,0-0.002,0-0.003,0c-0.036,0.008-0.068,0.024-0.104,0.035
		c-0.064,0.019-0.13,0.036-0.191,0.063c-0.069,0.031-0.131,0.071-0.194,0.11c-0.025,0.016-0.053,0.028-0.077,0.045
		c-0.066,0.047-0.125,0.103-0.183,0.16c-0.018,0.017-0.039,0.031-0.056,0.05c-0.001,0.002-0.004,0.003-0.005,0.004
		c0.001-0.001,0.004-0.003,0.005-0.004c-0.073,0.079-0.138,0.166-0.195,0.261c-2.803,4.698-4.051,9.152-3.77,13.131
		c0.01,0.141,0.017,0.282,0.031,0.422c0.013,0.135,0.033,0.267,0.05,0.401c0.208,1.639,0.679,3.193,1.424,4.643
		c0.115,0.223,0.236,0.444,0.363,0.661c0.031,0.053,0.067,0.105,0.099,0.158c0.099,0.166,0.199,0.331,0.306,0.493
		c0.012,0.018,0.025,0.035,0.037,0.053c0.838,1.261,1.899,2.433,3.184,3.499c0.216,0.18,0.438,0.356,0.667,0.529
		c-0.057-0.043-0.111-0.089-0.167-0.133c0.057,0.044,0.11,0.09,0.167,0.133c0.001,0,0.001,0.001,0.002,0.002
		c0.379,0.287,0.77,0.558,1.171,0.814c2.931,1.871,6.4,2.888,9.919,2.888c0.048,0,0.095,0,0.143,0
		c0.892-0.007,1.593-0.768,1.544-1.659v-0.005C51.682,75.045,51.666,74.943,51.641,74.846z M37.521,48.398c0,0,0.001,0,0.002,0
		c-0.032,0.007-0.062,0.022-0.094,0.031C37.46,48.419,37.489,48.405,37.521,48.398z M35.835,60.303
		c0.012-0.176,0.028-0.352,0.046-0.528C35.862,59.952,35.847,60.128,35.835,60.303z"/><path d="M50.101 73.664c.051 0 .1.009.151.015 0 0 .001 0 .002 0C50.203 73.674 50.153 73.664 50.101 73.664zM50.001 73.664c.033 0 .068.001.1 0-.003 0-.007 0-.009 0C50.061 73.664 50.031 73.664 50.001 73.664z"/></svg>